<svg width="99" height="99" viewBox="0 0 99 99" xmlns="http://www.w3.org/2000/svg" xmlns:xlink="http://www.w3.org/1999/xlink"><defs><circle id="b" cx="37.5" cy="37.5" r="37.5"/><filter x="-29.3%" y="-18.7%" width="158.7%" height="158.7%" filterUnits="objectBoundingBox" id="a"><feOffset dy="8" in="SourceAlpha" result="shadowOffsetOuter1"/><feGaussianBlur stdDeviation="6" in="shadowOffsetOuter1" result="shadowBlurOuter1"/><feColorMatrix values="0 0 0 0 0.607843137 0 0 0 0 0.647058824 0 0 0 0 0.639215686 0 0 0 0.15 0" in="shadowBlurOuter1"/></filter></defs><g fill="none" fill-rule="evenodd"><g transform="translate(12 4)"><use fill="#000" filter="url(#a)" xlink:href="#b"/><use fill="#FFF" xlink:href="#b"/></g><path d="M62.713 30.698v22.114h.616a1.588 1.588 0 0 1 0 3.177H31.632a1.588 1.588 0 1 1 0-3.177h.623v-8.135c0-.786.638-1.424 1.425-1.424h2.742c.787 0 1.425.638 1.425 1.424v8.135h2.635v-5.976c0-.787.638-1.425 1.425-1.425h2.742c.787 0 1.425.638 1.425 1.425v5.976h2.635v-16.27c0-.786.638-1.424 1.425-1.424h2.71c.787 0 1.425.638 1.425 1.425v16.269h2.85V30.698h-.856a1.368 1.368 0 0 1-1.036-.441 1.314 1.314 0 0 1-.082-1.638l3.708-5.182a1.314 1.314 0 0 1 2.136 0l3.719 5.182a1.314 1.314 0 0 1-1.069 2.083h-.926v-.004zm-17.348-5.872a8.024 8.024 0 0 0-1.994-.595c-.499-.079-.499-.079-.499-.577 0-1.35-.135-1.638-1.5-1.638h-.68c-.794.024-1.068.302-1.093 1.104v.779c0 .453 0 .453-.456.617-2.033.737-3.123 2.137-3.248 4.138-.103 1.72.677 3.052 2.386 4.078.62.35 1.267.652 1.934.901.282.11.563.225.84.356.321.133.622.31.895.524a.937.937 0 0 1-.225 1.638 2.92 2.92 0 0 1-1.528.196 7.276 7.276 0 0 1-2.521-.751 1.336 1.336 0 0 0-.616-.193c-.542 0-.713.53-.79.787a31.67 31.67 0 0 0-.403 1.407c-.228.83-.068 1.179.712 1.56.801.359 1.65.599 2.522.712l.306.054V41.176a.965.965 0 0 0 1 1.037H41.776a.933.933 0 0 0 .972-1.005v-.426-.834c0-.2 0-.257.26-.324a4.986 4.986 0 0 0 2.575-1.653 4.573 4.573 0 0 0 .973-3.768 4.876 4.876 0 0 0-2.465-3.34 20.3 20.3 0 0 0-2.137-.977l-.281-.117a4.83 4.83 0 0 1-1.197-.67.776.776 0 0 1-.335-.69.801.801 0 0 1 .52-.599 1.82 1.82 0 0 1 .652-.128 5.61 5.61 0 0 1 2.785.552c.266.161.588.199.884.103.257-.147.438-.4.495-.69.12-.378.231-.76.338-1.14l.128-.446a.965.965 0 0 0-.577-1.235z" fill="#57DB9B" fill-rule="nonzero"/></g></svg>