<svg width="122" height="122" viewBox="0 0 122 122" xmlns="http://www.w3.org/2000/svg" xmlns:xlink="http://www.w3.org/1999/xlink"><defs><circle id="b" cx="49" cy="49" r="49"/><filter x="-22.4%" y="-14.3%" width="144.9%" height="144.9%" filterUnits="objectBoundingBox" id="a"><feOffset dy="8" in="SourceAlpha" result="shadowOffsetOuter1"/><feGaussianBlur stdDeviation="6" in="shadowOffsetOuter1" result="shadowBlurOuter1"/><feColorMatrix values="0 0 0 0 0.607843137 0 0 0 0 0.647058824 0 0 0 0 0.639215686 0 0 0 0.15 0" in="shadowBlurOuter1"/></filter><linearGradient x1="50%" y1="19.105%" x2="50%" y2="156.768%" id="c"><stop stop-color="#FFC94A" offset="0%"/><stop stop-color="#FFA74A" offset="100%"/></linearGradient></defs><g fill="none" fill-rule="evenodd"><g transform="translate(12 4)"><use fill="#000" filter="url(#a)" xlink:href="#b"/><use fill="#FFF" xlink:href="#b"/></g><path d="M8.658 34.548c-1.882-1.94-4.76-2.886-4.689-3.689.072-.802.216-1.569 2.579-2.264 2.362-.694 7.795-2.814 7.795-2.814-.576-2.851 5.228-3.69 12.616-3.69 7.387 0 13.203.839 12.615 3.69 0 0 5.445 2.12 7.82 2.814 2.374.695 2.506 1.462 2.578 2.264.072.803-2.782 1.737-4.665 3.69-.336-1.917-6.392-3.486-18.324-3.486-11.933 0-17.977 1.569-18.325 3.485zm5.9-12.085c-1.966-2.048-4.772-2.276-4.616-4.108.155-1.833 3.01-2.228 7.807-4.624a18.56 18.56 0 0 0 6.92-5.653c-.205-1.45 0-2.575 1.198-2.72V3.946c-.707-.503 0-.802 0-.802C24.74.807 25.711.053 26.983.053c1.27 0 2.242.754 1.115 3.09 0 0 .695.3 0 .802V5.36c1.2.156 1.415 1.281 1.2 2.719a18.559 18.559 0 0 0 6.93 5.653c4.834 2.432 7.64 2.791 7.808 4.624.168 1.832-2.663 2.12-4.63 4.108 0 0 0-3.114-12.423-3.114-12.424 0-12.424 3.114-12.424 3.114zM52.587 40.01c1.667.503 2.902 2.12-2.938 3.33-.084-1.15-6.98-2.6-22.665-2.6-15.686 0-22.582 1.402-22.666 2.6-5.828-1.234-4.593-2.827-2.938-3.366 1.655-.539 6.596-2.934 6.596-2.934-.3-2.935 7.879-3.45 19.008-3.45 11.128 0 19.307.551 19.007 3.486 0 0 4.941 2.42 6.596 2.934zm-25.603 4.264c17.484 0 22.617.922 22.617 2.492v7.186H28.973v-7.258h-3.97V54H4.366v-7.187c0-1.605 5.133-2.539 22.618-2.539z" transform="translate(34 22)" fill="url(#c)"/></g></svg>