<svg width="432" height="225" viewBox="0 0 432 225" xmlns="http://www.w3.org/2000/svg" xmlns:xlink="http://www.w3.org/1999/xlink"><defs><linearGradient x1="50%" y1="3.287%" x2="50%" y2="97.305%" id="c"><stop stop-color="#F7F7F7" offset="0%"/><stop stop-color="#E0E5E6" offset="100%"/></linearGradient><path id="b" d="M0 9.658h239.579v170.057H0z"/><filter x="-1.3%" y="-1.8%" width="104.6%" height="106.5%" filterUnits="objectBoundingBox" id="a"><feMorphology radius=".5" operator="dilate" in="SourceAlpha" result="shadowSpreadOuter1"/><feOffset dx="5" dy="5" in="shadowSpreadOuter1" result="shadowOffsetOuter1"/><feComposite in="shadowOffsetOuter1" in2="SourceAlpha" operator="out" result="shadowOffsetOuter1"/><feColorMatrix values="0 0 0 0 0.756862745 0 0 0 0 0.776470588 0 0 0 0 0.780392157 0 0 0 0.5 0" in="shadowOffsetOuter1"/></filter><ellipse id="e" cx="44.921" cy="44.909" rx="44.921" ry="44.909"/><filter x="-1.7%" y="-1.7%" width="106.7%" height="106.7%" filterUnits="objectBoundingBox" id="d"><feOffset dx="3" dy="3" in="SourceAlpha" result="shadowOffsetOuter1"/><feColorMatrix values="0 0 0 0 0.559300458 0 0 0 0 0.615885417 0 0 0 0 0.615885417 0 0 0 0.4 0" in="shadowOffsetOuter1"/></filter><ellipse id="f" cx="38.52" cy="38.11" rx="38.52" ry="38.11"/><path id="i" d="M0 0h148.771v124.522H0z"/><filter x="-2%" y="-2.4%" width="107.4%" height="108.8%" filterUnits="objectBoundingBox" id="h"><feMorphology radius=".5" operator="dilate" in="SourceAlpha" result="shadowSpreadOuter1"/><feOffset dx="5" dy="5" in="shadowSpreadOuter1" result="shadowOffsetOuter1"/><feComposite in="shadowOffsetOuter1" in2="SourceAlpha" operator="out" result="shadowOffsetOuter1"/><feColorMatrix values="0 0 0 0 0.756862745 0 0 0 0 0.776470588 0 0 0 0 0.780392157 0 0 0 0.5 0" in="shadowOffsetOuter1"/></filter></defs><g fill="none" fill-rule="evenodd"><g transform="translate(56.03 .016)"><use fill="#000" filter="url(#a)" xlink:href="#b"/><use fill="#FFF" xlink:href="#b"/><path stroke="url(#c)" stroke-width=".5" d="M-.25 9.408h240.079v170.557H-.25z"/></g><path d="M160.363 9.674H56.031v13.52h239.578V9.675h-102.4V.966h-32.846v8.708z" fill="#A9B2B8"/><g fill-rule="nonzero"><g fill="#11D06F"><path d="M116.325 121.048h17.39v32.389h-17.39z"/><path d="M152.703 91.865h17.39v61.572h-17.39z"/><path d="M189.081 121.048h17.39v32.389h-17.39z"/><path d="M225.46 79.002h17.388v74.435H225.46z"/></g><path d="M120.912 105.847c5.512 0 9.995-4.468 9.995-9.96a9.869 9.869 0 0 0-1.178-4.686l23.519-21.232a9.962 9.962 0 0 0 5.908 1.933 9.986 9.986 0 0 0 7.428-3.304l19.22 11.375a9.916 9.916 0 0 0-.264 2.264c0 5.492 4.483 9.96 9.994 9.96s9.995-4.468 9.995-9.96c0-1.533-.35-2.985-.973-4.283l21.863-19.935a9.961 9.961 0 0 0 5.493 1.645c5.511 0 9.995-4.468 9.995-9.959 0-5.492-4.484-9.96-9.995-9.96-5.511 0-9.995 4.468-9.995 9.96 0 1.79.479 3.47 1.312 4.922L201.612 74.34a9.965 9.965 0 0 0-6.078-2.06 9.99 9.99 0 0 0-7.628 3.534l-19.094-11.3c.22-.82.338-1.681.338-2.57 0-5.491-4.483-9.959-9.994-9.959s-9.995 4.468-9.995 9.96c0 1.609.388 3.13 1.071 4.476l-23.6 21.306a9.96 9.96 0 0 0-5.72-1.798c-5.51 0-9.994 4.467-9.994 9.96 0 5.491 4.483 9.959 9.994 9.959zm111-61.454c2.94 0 5.33 2.383 5.33 5.312 0 2.93-2.39 5.313-5.33 5.313s-5.33-2.383-5.33-5.313c0-2.929 2.39-5.312 5.33-5.312zm-36.378 32.533c2.94 0 5.33 2.383 5.33 5.311 0 2.93-2.39 5.312-5.33 5.312s-5.33-2.383-5.33-5.312c0-2.928 2.39-5.311 5.33-5.311zm-36.378-20.294c2.94 0 5.33 2.383 5.33 5.312 0 2.928-2.39 5.312-5.33 5.312s-5.331-2.383-5.331-5.312c0-2.93 2.391-5.312 5.33-5.312zm-38.244 33.943a5.32 5.32 0 0 1 3.813 1.608 2.31 2.31 0 0 0 .356.403 5.27 5.27 0 0 1 1.162 3.302c0 2.929-2.392 5.312-5.33 5.312-2.94 0-5.331-2.383-5.331-5.312 0-2.93 2.391-5.313 5.33-5.313z" fill="#FFBE58"/></g><g><g transform="translate(0 90.783)"><use fill="#000" filter="url(#d)" xlink:href="#e"/><use fill="#FFF" xlink:href="#e"/></g><g transform="translate(7.487 98.268)"><mask id="g" fill="#fff"><use xlink:href="#f"/></mask><use fill-opacity=".8" fill="#FFF" fill-rule="nonzero" xlink:href="#f"/><ellipse fill="#11D06F" fill-rule="nonzero" mask="url(#g)" cx="38.153" cy="71.055" rx="29.003" ry="20.325"/><ellipse fill="#11D06F" fill-rule="nonzero" mask="url(#g)" cx="38.963" cy="29.321" rx="14.191" ry="14.041"/></g></g><g fill-rule="nonzero" fill="#A9B2B8"><path d="M175.82 224.543c-7.203 0-13.042-5.837-13.042-13.038 0-7.2 5.84-13.038 13.042-13.038 7.203 0 13.041 5.837 13.041 13.038 0 7.2-5.838 13.038-13.041 13.038zm0-8.692a4.347 4.347 0 1 0 .001-8.693 4.347 4.347 0 0 0-.001 8.693z"/><path d="M179.362 202.017v-21.912h-7.728v21.912z"/></g><g><g transform="translate(277.254 80.17)"><use fill="#000" filter="url(#h)" xlink:href="#i"/><use fill="#FFF" xlink:href="#i"/><path stroke="url(#c)" stroke-width=".5" d="M-.25-.25h149.271v125.022H-.25z"/></g><path fill="#A9B2B8" d="M277.254 80.17h148.771v9.961h-148.77z"/><g transform="translate(281.526 83.727)" fill="#EFF9FF"><ellipse cx="1.396" cy="1.423" rx="1.396" ry="1.423"/><ellipse cx="6.051" cy="1.423" rx="1.396" ry="1.423"/><ellipse cx="10.705" cy="1.423" rx="1.396" ry="1.423"/></g><g fill="#D8E3E6" opacity=".6"><path style="mix-blend-mode:multiply" d="M344.694 114.916h31.322v3.558h-31.322z"/><path style="mix-blend-mode:multiply" d="M344.694 124.166h72.61v3.558h-72.61z"/><path style="mix-blend-mode:multiply" d="M344.694 130.57h48.407v3.558h-48.407z"/></g><g fill="#D8E3E6" opacity=".6"><path style="mix-blend-mode:multiply" d="M344.694 162.625h31.322v3.558h-31.322z"/><path style="mix-blend-mode:multiply" d="M344.694 171.875h72.61v3.558h-72.61z"/><path style="mix-blend-mode:multiply" d="M344.694 178.28h48.407v3.557h-48.407z"/></g><g fill="#D8E3E6" opacity=".6"><path d="M327.998 122.615H310.03v-18.182c9.924 0 17.97 8.14 17.97 18.182z" style="mix-blend-mode:multiply"/><path d="M306.924 107.34c-9.924 0-17.968 8.141-17.968 18.183s8.044 18.183 17.968 18.183 17.97-8.14 17.97-18.183h-17.97V107.34z" style="mix-blend-mode:multiply"/></g><g fill-rule="nonzero" fill="#D8E3E6" opacity=".6"><path style="mix-blend-mode:multiply" d="M313.784 171.347h5.746v20.018h-5.746z"/><path style="mix-blend-mode:multiply" d="M324.057 165.725h5.746v25.64h-5.746z"/><path style="mix-blend-mode:multiply" d="M303.513 177.772h5.746v13.593h-5.746z"/><path style="mix-blend-mode:multiply" d="M293.24 184.558h5.746v6.808h-5.746z"/><path d="M294.588 174.163s12.723-3.95 16.964-13.813h-3.635l7.341-6.494 6.594 6.494h-3.324s-3.398 13.813-23.94 13.813z" style="mix-blend-mode:multiply"/></g></g></g></svg>