<svg width="332" height="252" viewBox="0 0 332 252" xmlns="http://www.w3.org/2000/svg" xmlns:xlink="http://www.w3.org/1999/xlink"><defs><path id="a" d="M331.188 155.413l-165.054 96.415L0 155.415 165.054 59z"/><path id="b" d="M77.825 88.983L0 44.491 78.333 0l77.825 44.493z"/><linearGradient x1="1.381%" y1="0%" y2="100%" id="c"><stop stop-color="#F7FF00" stop-opacity="0" offset="0%"/><stop stop-color="#F6FF00" offset="11.448%"/><stop stop-color="#EDFF00" offset="91.938%"/><stop stop-color="#ECFF00" stop-opacity="0" offset="100%"/></linearGradient></defs><g fill="none" fill-rule="evenodd"><g opacity=".5"><use fill="#FFF" xlink:href="#a"/><path stroke="#F6FFFB" d="M330.194 155.415L165.055 59.579.994 155.413l165.14 95.837 164.06-95.835z"/></g><g fill-rule="nonzero"><path stroke-opacity=".852" stroke="#FFF" fill="#A2FAD0" opacity=".95" stroke-linejoin="round" d="M158.825 201.585L81 157.092V68.544l77.825 44.492z"/><path stroke-opacity=".852" stroke="#FFF" fill="#BFFEE0" opacity=".95" stroke-linejoin="round" d="M158.825 112.983L81 68.491 159.333 24l77.825 44.493z"/><g opacity=".5" transform="translate(81)"><use fill="#FFF" fill-rule="evenodd" xlink:href="#b"/><path stroke="#F6FFFB" d="M77.826 88.408l77.322-43.917L78.332.575 1.01 44.493l76.816 43.915z"/></g><path stroke-opacity=".852" stroke="#FFF" fill="#89F2C0" opacity=".95" stroke-linejoin="round" d="M237.061 68.544v87.606l-78.333 45.433v-88.548z"/></g><path d="M177 212L26 125" stroke="url(#c)" stroke-width="1.2"/><path d="M292 212l-151-87" stroke="url(#c)" stroke-width="1.2" transform="matrix(-1 0 0 1 433 0)"/><path d="M158.538 202.512V46.522" stroke="#ECFF00"/></g></svg>