<svg width="99" height="99" viewBox="0 0 99 99" xmlns="http://www.w3.org/2000/svg" xmlns:xlink="http://www.w3.org/1999/xlink"><defs><circle id="b" cx="37.5" cy="37.5" r="37.5"/><filter x="-29.3%" y="-18.7%" width="158.7%" height="158.7%" filterUnits="objectBoundingBox" id="a"><feOffset dy="8" in="SourceAlpha" result="shadowOffsetOuter1"/><feGaussianBlur stdDeviation="6" in="shadowOffsetOuter1" result="shadowBlurOuter1"/><feColorMatrix values="0 0 0 0 0.607843137 0 0 0 0 0.647058824 0 0 0 0 0.639215686 0 0 0 0.15 0" in="shadowBlurOuter1"/></filter></defs><g fill="none" fill-rule="evenodd"><g transform="translate(12 4)"><use fill="#000" filter="url(#a)" xlink:href="#b"/><use fill="#FFF" xlink:href="#b"/></g><path d="M67.26 41.85L52.136 22.72c-.717-.959-2.15-.959-2.823 0l-15.97 19.132a1.752 1.752 0 0 0 1.433 2.792h7.037v11.11c0 .917.758 1.709 1.727 1.709h14.452c.927 0 1.728-.75 1.728-1.709V44.602h6.193c1.349 0 2.191-1.626 1.349-2.751z" fill="#57DB9B" fill-rule="nonzero"/><path d="M51.472 41.016V36.86c1.988.343 1.989 1.556 1.989 1.998h2.382c0-2.44-1.61-4.015-4.37-4.358v-1.662H49.09V34.5c-2.76.343-4.37 1.917-4.37 4.358 0 2.44 1.61 4.015 4.37 4.357v4.158c-1.988-.343-1.988-1.556-1.988-1.998h-2.383c0 2.44 1.611 4.015 4.371 4.358v1.662h2.382v-1.662c2.76-.343 4.371-1.917 4.371-4.358 0-2.44-1.61-4.015-4.37-4.358zm-2.382-.162c-1.988-.342-1.988-1.556-1.988-1.997 0-.442 0-1.655 1.988-1.998v3.995zm2.382 6.518v-3.995c1.988.342 1.989 1.555 1.989 1.997 0 .442 0 1.655-1.989 1.998z" fill="#FFF"/></g></svg>