<svg width="50" height="50" viewBox="0 0 50 50" xmlns="http://www.w3.org/2000/svg"><g fill="none" fill-rule="evenodd"><g fill-rule="nonzero"><path d="M2.976 0C1.327 0 0 1.63 0 3.654V45.72c0 2.025 1.327 3.654 2.976 3.654h44.048c1.649 0 2.976-1.63 2.976-3.654V10.644c0-2.025-1.327-3.654-2.976-3.654H23.927c-2.01-2.21-3.48-3.816-4.406-4.82C18.132.667 17.406 0 14.941 0H2.976z" fill="#79E3DB"/><path d="M2.976 0C1.327 0 0 1.63 0 3.654v26.421h50V10.644c0-2.025-1.327-3.654-2.976-3.654H23.927c-2.01-2.21-3.48-3.816-4.406-4.82C18.132.667 17.406 0 14.941 0H2.976z" fill="#20D0C4"/></g><path d="M27.291 30.318l5.25-5.25a2.602 2.602 0 0 1 3.68 0v.001a2.602 2.602 0 0 1 0 3.68 30890903873902180 30890903873902180 0 0 1-11.564 10.519c-.67 0-1.312-.266-1.785-.74l-9.78-9.78a2.602 2.602 0 0 1 3.68-3.68l5.25 5.25V16.726a2.634 2.634 0 0 1 2.634-2.634h.002a2.634 2.634 0 0 1 2.633 2.634v13.592z" fill="#FFF"/></g></svg>