<svg width="99" height="99" viewBox="0 0 99 99" xmlns="http://www.w3.org/2000/svg" xmlns:xlink="http://www.w3.org/1999/xlink"><defs><circle id="b" cx="37.5" cy="37.5" r="37.5"/><filter x="-29.3%" y="-18.7%" width="158.7%" height="158.7%" filterUnits="objectBoundingBox" id="a"><feOffset dy="8" in="SourceAlpha" result="shadowOffsetOuter1"/><feGaussianBlur stdDeviation="6" in="shadowOffsetOuter1" result="shadowBlurOuter1"/><feColorMatrix values="0 0 0 0 0.607843137 0 0 0 0 0.647058824 0 0 0 0 0.639215686 0 0 0 0.15 0" in="shadowBlurOuter1"/></filter></defs><g fill="none" fill-rule="evenodd"><g transform="translate(12 4)"><use fill="#000" filter="url(#a)" xlink:href="#b"/><use fill="#FFF" xlink:href="#b"/></g><path d="M67.52 51.866L50.702 23.684a1.4 1.4 0 0 0-2.404 0L31.48 51.866c-.26.435-.266.978-.018 1.42.25.441.715.714 1.22.714h33.636c.505 0 .971-.273 1.22-.715.249-.442.242-.984-.018-1.42zM50.9 46.955c0 .777-.627 1.409-1.401 1.409a1.406 1.406 0 0 1-1.402-1.41v-1.409c0-.777.628-1.409 1.402-1.409.774 0 1.401.632 1.401 1.41v1.409zm0-5.637c0 .778-.627 1.41-1.401 1.41a1.406 1.406 0 0 1-1.402-1.41v-7.045c0-.778.628-1.41 1.402-1.41.774 0 1.401.632 1.401 1.41v7.045z" fill-rule="nonzero" fill="#26B2F0"/></g></svg>