<svg width="49" height="49" viewBox="0 0 49 49" xmlns="http://www.w3.org/2000/svg"><g fill="none" fill-rule="evenodd"><circle fill="#37C4FD" cx="10.889" cy="10.889" r="10.889"/><circle fill-opacity=".6" fill="#37C4FD" cx="10.889" cy="38.111" r="10.889"/><circle fill-opacity=".6" fill="#37C4FD" cx="38.111" cy="10.889" r="10.889"/><circle fill="#37C4FD" cx="38.111" cy="38.111" r="10.889"/><path d="M5.615 10.4a.552.552 0 0 0-.055.738l2.478 3.202a1 1 0 0 0 1.544.045l7.074-8.117a.483.483 0 0 0-.066-.697.592.592 0 0 0-.77.034l-7.038 6.63-2.414-1.874a.577.577 0 0 0-.753.04z" fill="#FFF" fill-rule="nonzero"/><path d="M5.615 37.623a.552.552 0 0 0-.055.737l2.478 3.202a1 1 0 0 0 1.544.045l7.074-8.116a.483.483 0 0 0-.066-.698.592.592 0 0 0-.77.035l-7.038 6.629-2.414-1.873a.577.577 0 0 0-.753.039z" fill="#37C4FD" fill-rule="nonzero"/><path d="M32.837 10.4a.552.552 0 0 0-.055.738l2.478 3.202a1 1 0 0 0 1.544.045l7.074-8.117a.483.483 0 0 0-.066-.697.592.592 0 0 0-.77.034l-7.037 6.63-2.415-1.874a.577.577 0 0 0-.753.04z" fill="#37C4FD" fill-rule="nonzero"/><path d="M32.837 37.623a.552.552 0 0 0-.055.737l2.478 3.202a1 1 0 0 0 1.544.045l7.074-8.116a.483.483 0 0 0-.066-.698.592.592 0 0 0-.77.035l-7.037 6.629-2.415-1.873a.577.577 0 0 0-.753.039z" fill="#FFF" fill-rule="nonzero"/></g></svg>