<svg width="60" height="60" viewBox="0 0 60 60" xmlns="http://www.w3.org/2000/svg"><g fill="none" fill-rule="evenodd"><circle fill="#56D5C6" opacity=".7" cx="30" cy="30" r="30"/><g transform="translate(15.79 15.79)"><path d="M1.6 0h24.695a1.6 1.6 0 0 1 1.6 1.6v4.816a1.6 1.6 0 0 1-1.6 1.6H1.6a1.6 1.6 0 0 1-1.6-1.6V1.6A1.6 1.6 0 0 1 1.6 0zm0 10.466h24.695a1.6 1.6 0 0 1 1.6 1.6v4.816a1.6 1.6 0 0 1-1.6 1.6H1.6a1.6 1.6 0 0 1-1.6-1.6v-4.816a1.6 1.6 0 0 1 1.6-1.6zm0 10.465h24.695a1.6 1.6 0 0 1 1.6 1.6v4.816a1.6 1.6 0 0 1-1.6 1.6H1.6a1.6 1.6 0 0 1-1.6-1.6v-4.816a1.6 1.6 0 0 1 1.6-1.6z" fill="#FFF"/><circle fill="#56D5C6" opacity=".7" cx="3.947" cy="3.947" r="1.316"/><circle fill="#56D5C6" opacity=".7" cx="3.947" cy="14.474" r="1.316"/><circle fill="#56D5C6" opacity=".7" cx="3.947" cy="25" r="1.316"/></g></g></svg>