<svg width="99" height="99" viewBox="0 0 99 99" xmlns="http://www.w3.org/2000/svg" xmlns:xlink="http://www.w3.org/1999/xlink"><defs><circle id="b" cx="37.5" cy="37.5" r="37.5"/><filter x="-29.3%" y="-18.7%" width="158.7%" height="158.7%" filterUnits="objectBoundingBox" id="a"><feOffset dy="8" in="SourceAlpha" result="shadowOffsetOuter1"/><feGaussianBlur stdDeviation="6" in="shadowOffsetOuter1" result="shadowBlurOuter1"/><feColorMatrix values="0 0 0 0 0.607843137 0 0 0 0 0.647058824 0 0 0 0 0.639215686 0 0 0 0.15 0" in="shadowBlurOuter1"/></filter></defs><g fill="none" fill-rule="evenodd"><g transform="translate(12 4)"><use fill="#000" filter="url(#a)" xlink:href="#b"/><use fill="#FFF" xlink:href="#b"/></g><path d="M30.504 46.325V39.57a2.668 2.668 0 0 1 2.166-2.702 2.533 2.533 0 0 1 2.9 2.491v6.966a5.7 5.7 0 0 0 5.7 5.7h13.3v-2.643a2.381 2.381 0 0 1 3.867-1.858l6.658 5.324a2.191 2.191 0 0 1 0 3.424l-6.658 5.324a2.381 2.381 0 0 1-3.868-1.862v-2.643H41.27c-5.946 0-10.766-4.82-10.766-10.766zm35.832.608a2.668 2.668 0 0 0 2.166-2.702v-6.755a10.766 10.766 0 0 0-10.766-10.783h-13.3V24.05a2.381 2.381 0 0 0-3.87-1.861l-6.655 5.323a2.191 2.191 0 0 0 0 3.424l6.654 5.329a2.381 2.381 0 0 0 3.872-1.862V31.76h13.299a5.7 5.7 0 0 1 5.7 5.7v6.966a2.533 2.533 0 0 0 2.9 2.507z" fill="#6B91EE" fill-rule="nonzero"/></g></svg>