<svg width="67" height="48" viewBox="0 0 67 48" xmlns="http://www.w3.org/2000/svg"><g fill-rule="nonzero" fill="none"><rect fill-opacity=".8" fill="#FFF" opacity=".8" width="45.424" height="48" rx="2.2"/><rect fill="#16D18A" x="5.047" y="35.368" width="35.33" height="4.571" rx="2"/><rect fill="#FFF" x="5.047" y="24" width="36.339" height="4.571" rx="2"/><path d="M46.642 15.047h17.916a2 2 0 0 1 2 2v.572a2 2 0 0 1-2 2H46.083l4.787 4.786c.887.887.882 2.33-.01 3.223a2.278 2.278 0 0 1-3.223.01l-8.399-8.4a2.278 2.278 0 0 1 .01-3.221l8.453-8.453a2.278 2.278 0 0 1 3.223-.01c.887.886.882 2.33-.01 3.222l-4.272 4.271z" fill="#FFF"/><rect fill="#FFF" x="5.047" y="15.158" width="18.169" height="4.571" rx="2"/><rect fill="#FFF" x="5.047" y="6.316" width="36.339" height="4.571" rx="2"/></g></svg>