<svg width="50" height="45" viewBox="0 0 50 45" xmlns="http://www.w3.org/2000/svg"><g fill="none" fill-rule="evenodd"><path d="M47.745 45H2.255a1.8 1.8 0 0 1-1.8-1.8V1.8a1.8 1.8 0 0 1 1.8-1.8h45.49a1.8 1.8 0 0 1 1.8 1.8v41.4a1.8 1.8 0 0 1-1.8 1.8z" fill="#20D0C4" fill-rule="nonzero" opacity=".6"/><rect fill="#20D0C4" fill-rule="nonzero" transform="rotate(-180 24.578 10.671)" x="6.396" y="5.271" width="36.364" height="10.8" rx="1.8"/><rect fill="#20D0C4" fill-rule="nonzero" transform="rotate(-180 36.59 29.957)" x="30.519" y="20.571" width="12.143" height="18.771" rx="1.8"/><rect fill="#FFF" x="7.273" y="22.5" width="18.182" height="2.7" rx="1.35"/><rect fill="#FFF" x="7.273" y="28.35" width="18.182" height="2.7" rx="1.35"/><rect fill="#FFF" x="7.273" y="34.2" width="18.182" height="2.7" rx="1.35"/></g></svg>