<svg width="535" height="168" viewBox="0 0 535 168" xmlns="http://www.w3.org/2000/svg" xmlns:xlink="http://www.w3.org/1999/xlink"><defs><path d="M.465 0h59.827l15.804 20.96a2 2 0 0 0 1.579.795l59.696.548v87.353H.465V0z" id="b"/><filter x="-1.8%" y="-2.3%" width="107.3%" height="109.1%" filterUnits="objectBoundingBox" id="a"><feOffset dx="5" dy="5" in="SourceAlpha" result="shadowOffsetOuter1"/><feColorMatrix values="0 0 0 0 0.756862745 0 0 0 0 0.776470588 0 0 0 0 0.780392157 0 0 0 0.5 0" in="shadowOffsetOuter1"/></filter><path d="M4 0h88.767a4 4 0 0 1 4 4v158.18H0V4a4 4 0 0 1 4-4z" id="d"/><filter x="-2.6%" y="-1.5%" width="110.3%" height="106.2%" filterUnits="objectBoundingBox" id="c"><feOffset dx="5" dy="5" in="SourceAlpha" result="shadowOffsetOuter1"/><feColorMatrix values="0 0 0 0 0.756862745 0 0 0 0 0.776470588 0 0 0 0 0.780392157 0 0 0 0.5 0" in="shadowOffsetOuter1"/></filter><linearGradient x1="50%" y1="3.287%" x2="50%" y2="97.305%" id="g"><stop stop-color="#F7F7F7" offset="0%"/><stop stop-color="#E0E5E6" offset="100%"/></linearGradient><path id="f" d="M0 0h118.655v103.519H0z"/><filter x="-2.5%" y="-2.9%" width="109.3%" height="110.6%" filterUnits="objectBoundingBox" id="e"><feMorphology radius=".5" operator="dilate" in="SourceAlpha" result="shadowSpreadOuter1"/><feOffset dx="5" dy="5" in="shadowSpreadOuter1" result="shadowOffsetOuter1"/><feComposite in="shadowOffsetOuter1" in2="SourceAlpha" operator="out" result="shadowOffsetOuter1"/><feColorMatrix values="0 0 0 0 0.756862745 0 0 0 0 0.776470588 0 0 0 0 0.780392157 0 0 0 0.5 0" in="shadowOffsetOuter1"/></filter><path id="i" d="M0 0h118.655v103.519H0z"/><filter x="-2.5%" y="-2.9%" width="109.3%" height="110.6%" filterUnits="objectBoundingBox" id="h"><feMorphology radius=".5" operator="dilate" in="SourceAlpha" result="shadowSpreadOuter1"/><feOffset dx="5" dy="5" in="shadowSpreadOuter1" result="shadowOffsetOuter1"/><feComposite in="shadowOffsetOuter1" in2="SourceAlpha" operator="out" result="shadowOffsetOuter1"/><feColorMatrix values="0 0 0 0 0.756862745 0 0 0 0 0.776470588 0 0 0 0 0.780392157 0 0 0 0.5 0" in="shadowOffsetOuter1"/></filter></defs><g fill="none" fill-rule="evenodd"><path fill="#11D06F" d="M216.942 8.051h64.903l14.584 14.13v90.54h-79.487z"/><path fill="#11B260" d="M281.453 8.213l14.794 14.464h-14.794z"/><g transform="translate(229.614 36.807)" fill="#FFF"><rect width="55.295" height="6.901" rx="3"/><rect y="15.009" width="55.295" height="6.901" rx="3"/><rect y="30.018" width="55.295" height="6.901" rx="3"/></g><g transform="translate(180.078 52.159)"><use fill="#000" filter="url(#a)" xlink:href="#b"/><use fill="#F0F5F8" xlink:href="#b"/></g><g><use fill="#000" filter="url(#c)" xlink:href="#d"/><use fill="#F1F5F7" xlink:href="#d"/></g><path fill="#D8E3E6" opacity=".6" style="mix-blend-mode:multiply" d="M9.948 21.624h77.775V36.04H9.948z"/><path fill="#FFBE58" d="M63.029 27.222h7.846v3.033h-7.846z"/><path fill="#11D06F" d="M73.054 27.222H80.9v3.033h-7.846z"/><g><path fill="#D8E3E6" opacity=".6" style="mix-blend-mode:multiply" d="M9.948 41.446h77.775v14.416H9.948z"/><path fill="#FFBE58" d="M63.029 47.044h7.846v3.033h-7.846z"/><path fill="#11D06F" d="M73.054 47.044H80.9v3.033h-7.846z"/></g><g><path fill="#D8E3E6" opacity=".6" style="mix-blend-mode:multiply" d="M9.948 61.268h77.775v14.416H9.948z"/><path fill="#FFBE58" d="M63.029 66.866h7.846v3.033h-7.846z"/><path fill="#11D06F" d="M73.054 66.866H80.9v3.033h-7.846z"/></g><g transform="translate(9.948 100.912)"><path fill="#D8E3E6" opacity=".6" style="mix-blend-mode:multiply" d="M0 0h77.775v32.436H0z"/><path fill="#FFF" d="M59.231 12.898h5.026v7.093h-5.026z"/><path fill="#FFF" d="M22.839 15.735h12.844v2.128H22.839z"/><path fill="#FFF" d="M67.049 12.898h5.026v7.093h-5.026z"/><ellipse fill="#FFF" cx="9.14" cy="17.013" rx="2.713" ry="2.697"/><ellipse fill="#FFF" cx="16.798" cy="17.013" rx="2.713" ry="2.697"/></g><g><g transform="translate(375.683 55.008)"><use fill="#000" filter="url(#e)" xlink:href="#f"/><use fill="#FFF" xlink:href="#f"/><path stroke="url(#g)" stroke-width=".5" d="M-.25-.25h119.155v104.019H-.25z"/></g><path fill="#A9B2B8" d="M375.683 55.008h118.655v8.281H375.683z"/><g transform="translate(379.243 57.966)" fill="#EFF9FF"><ellipse cx="1.164" cy="1.183" rx="1.164" ry="1.183"/><ellipse cx="5.043" cy="1.183" rx="1.164" ry="1.183"/><ellipse cx="8.922" cy="1.183" rx="1.164" ry="1.183"/></g><g fill="#D8E3E6" opacity=".6"><path style="mix-blend-mode:multiply" d="M384.582 125.923h23.138v23.139h-23.138z"/><path style="mix-blend-mode:multiply" d="M414.84 129.542h26.103v2.958H414.84z"/><path style="mix-blend-mode:multiply" d="M414.84 137.232h60.513v2.958H414.84z"/><path style="mix-blend-mode:multiply" d="M414.84 142.556h40.342v2.958H414.84z"/></g><g fill="#D8E3E6" opacity=".6"><path style="mix-blend-mode:multiply" d="M384.582 98.156h23.138v23.139h-23.138z"/><path style="mix-blend-mode:multiply" d="M414.84 101.74h26.103v2.958H414.84z"/><path style="mix-blend-mode:multiply" d="M414.84 109.43h60.513v2.958H414.84z"/><path style="mix-blend-mode:multiply" d="M414.84 114.754h40.342v2.958H414.84z"/></g><g fill="#D8E3E6" opacity=".6"><path style="mix-blend-mode:multiply" d="M384.582 70.388h23.138v23.14h-23.138z"/><path style="mix-blend-mode:multiply" d="M414.84 73.346h26.103v2.958H414.84z"/><path style="mix-blend-mode:multiply" d="M414.84 81.036h60.513v2.958H414.84z"/><path style="mix-blend-mode:multiply" d="M414.84 86.36h40.342v2.958H414.84z"/></g><g><g transform="translate(410.243 9)"><use fill="#000" filter="url(#h)" xlink:href="#i"/><use fill="#FFF" xlink:href="#i"/><path stroke="url(#g)" stroke-width=".5" d="M-.25-.25h119.155v104.019H-.25z"/></g><path fill="#A9B2B8" d="M410.243 9h118.655v8.281H410.243z"/><g transform="translate(413.803 11.958)" fill="#EFF9FF"><ellipse cx="1.164" cy="1.183" rx="1.164" ry="1.183"/><ellipse cx="5.043" cy="1.183" rx="1.164" ry="1.183"/><ellipse cx="8.922" cy="1.183" rx="1.164" ry="1.183"/></g><g fill="#D8E3E6" opacity=".6"><path style="mix-blend-mode:multiply" d="M419.142 79.915h23.138v23.139h-23.138z"/><path style="mix-blend-mode:multiply" d="M449.399 83.533h26.104v2.958h-26.104z"/><path style="mix-blend-mode:multiply" d="M449.399 91.223h60.514v2.958h-60.514z"/><path style="mix-blend-mode:multiply" d="M449.399 96.547h40.343v2.958h-40.343z"/></g><g fill="#D8E3E6" opacity=".6"><path style="mix-blend-mode:multiply" d="M419.142 52.147h23.138v23.14h-23.138z"/><path style="mix-blend-mode:multiply" d="M449.399 55.731h26.104v2.958h-26.104z"/><path style="mix-blend-mode:multiply" d="M449.399 63.421h60.514v2.958h-60.514z"/><path style="mix-blend-mode:multiply" d="M449.399 68.745h40.343v2.958h-40.343z"/></g><g fill="#D8E3E6" opacity=".6"><path style="mix-blend-mode:multiply" d="M419.142 24.38h23.138v23.139h-23.138z"/><path style="mix-blend-mode:multiply" d="M449.399 27.338h26.104v2.958h-26.104z"/><path style="mix-blend-mode:multiply" d="M449.399 35.028h60.514v2.958h-60.514z"/><path style="mix-blend-mode:multiply" d="M449.399 40.352h40.343v2.958h-40.343z"/></g></g></g><g stroke-opacity=".7" stroke="#7D949D" stroke-dasharray="2,2"><path d="M326.957 83.39H350.5"/><path d="M366.004 140.627h-16V30.754h16"/></g><g stroke-opacity=".7" stroke="#7D949D" stroke-dasharray="2,2"><path d="M132.5 83.39h28.582"/><path d="M115.59 30.754h16v109.873h-16"/></g></g></svg>