<svg width="90" height="90" viewBox="0 0 90 90" xmlns="http://www.w3.org/2000/svg"><g fill="none" fill-rule="evenodd"><ellipse cx="44.803" cy="45" rx="44.803" ry="44.4" fill="#26B2F0"/><g fill="#FFF"><path d="M45.49 48.105L67.347 30.1c-.118-.022-.225-.07-.347-.07H23.983c-.12 0-.228.048-.346.07L45.49 48.105zm23.464-16.142c0-.203-.056-.39-.118-.575L53.343 44.156 68.859 59.5c.04-.155.095-.304.095-.471V31.963zm-46.808-.577c-.06.186-.12.371-.12.577V59.03c0 .17.059.318.097.472l15.521-15.346-15.498-12.77z"/><path d="M51.832 45.398l-5.717 4.708a.963.963 0 0 1-.624.224.974.974 0 0 1-.626-.224l-5.712-4.705L23.51 60.867c.153.04.306.096.473.096h43.016c.17 0 .322-.055.48-.096L51.831 45.398"/></g></g></svg>