<svg width="99" height="99" viewBox="0 0 99 99" xmlns="http://www.w3.org/2000/svg" xmlns:xlink="http://www.w3.org/1999/xlink"><defs><circle id="b" cx="37.5" cy="37.5" r="37.5"/><filter x="-29.3%" y="-18.7%" width="158.7%" height="158.7%" filterUnits="objectBoundingBox" id="a"><feOffset dy="8" in="SourceAlpha" result="shadowOffsetOuter1"/><feGaussianBlur stdDeviation="6" in="shadowOffsetOuter1" result="shadowBlurOuter1"/><feColorMatrix values="0 0 0 0 0.607843137 0 0 0 0 0.647058824 0 0 0 0 0.639215686 0 0 0 0.15 0" in="shadowBlurOuter1"/></filter></defs><g fill="none" fill-rule="evenodd"><g transform="translate(12 4)"><use fill="#000" filter="url(#a)" xlink:href="#b"/><use fill="#FFF" xlink:href="#b"/></g><path d="M43.62 48.956h11.76a1.62 1.62 0 0 0 1.62-1.62V33.891h6.101a1.62 1.62 0 0 0 1.148-2.763l-13.601-13.66a1.62 1.62 0 0 0-2.296 0l-13.601 13.66a1.62 1.62 0 0 0 1.148 2.763H42v13.445c0 .895.725 1.62 1.62 1.62zm-10 5.022h31.76c.895 0 1.62.726 1.62 1.62v1.782A1.62 1.62 0 0 1 65.38 59H33.62A1.62 1.62 0 0 1 32 57.38v-1.782c0-.894.725-1.62 1.62-1.62z" fill="#57DB9B" fill-rule="nonzero"/></g></svg>