<svg width="99" height="99" viewBox="0 0 99 99" xmlns="http://www.w3.org/2000/svg" xmlns:xlink="http://www.w3.org/1999/xlink"><defs><circle id="b" cx="37.5" cy="37.5" r="37.5"/><filter x="-29.3%" y="-18.7%" width="158.7%" height="158.7%" filterUnits="objectBoundingBox" id="a"><feOffset dy="8" in="SourceAlpha" result="shadowOffsetOuter1"/><feGaussianBlur stdDeviation="6" in="shadowOffsetOuter1" result="shadowBlurOuter1"/><feColorMatrix values="0 0 0 0 0.607843137 0 0 0 0 0.647058824 0 0 0 0 0.639215686 0 0 0 0.15 0" in="shadowBlurOuter1"/></filter></defs><g fill="none" fill-rule="evenodd"><g transform="translate(12 4)"><use fill="#000" filter="url(#a)" xlink:href="#b"/><use fill="#FFF" xlink:href="#b"/></g><path d="M49.5 45.688c4.094 0 7.424 3.328 7.425 7.422h7.077v-2.362l-3.035-.481a11.722 11.722 0 0 0-1.346-3.25l2.647-3.648a16.155 16.155 0 0 0-3.025-3.024l-3.647 2.647a11.734 11.734 0 0 0-3.25-1.347l-.707-4.448c-.7-.093-1.413-.146-2.139-.146-.725 0-1.438.053-2.138.146l-.706 4.448a11.775 11.775 0 0 0-3.25 1.346l-3.646-2.646a16.122 16.122 0 0 0-3.025 3.023l2.647 3.649a11.717 11.717 0 0 0-1.348 3.25l-3.035.48v2.363h7.077c.001-4.093 3.331-7.422 7.424-7.422zm0 1.629a5.803 5.803 0 0 0-5.796 5.793h11.593a5.803 5.803 0 0 0-5.797-5.793zM65.054 27H33.946A2.955 2.955 0 0 0 31 29.946V54.031a2.955 2.955 0 0 0 2.946 2.946h31.108A2.955 2.955 0 0 0 68 54.031V29.946A2.954 2.954 0 0 0 65.054 27zm-20.941 1.529a1.249 1.249 0 1 1 0 2.499 1.25 1.25 0 1 1 0-2.5zm-4.21 0a1.248 1.248 0 1 1 0 2.499 1.25 1.25 0 1 1 0-2.5zm-4.212 0c.69 0 1.249.558 1.249 1.25a1.249 1.249 0 1 1-2.499 0c0-.691.559-1.25 1.25-1.25zM66.127 54.03c0 .582-.491 1.073-1.073 1.073H33.946a1.087 1.087 0 0 1-1.073-1.073V32.555h33.254V54.03z" fill="#26B2F0" fill-rule="nonzero"/></g></svg>