<svg width="99" height="99" viewBox="0 0 99 99" xmlns="http://www.w3.org/2000/svg" xmlns:xlink="http://www.w3.org/1999/xlink"><defs><circle id="b" cx="37.5" cy="37.5" r="37.5"/><filter x="-29.3%" y="-18.7%" width="158.7%" height="158.7%" filterUnits="objectBoundingBox" id="a"><feOffset dy="8" in="SourceAlpha" result="shadowOffsetOuter1"/><feGaussianBlur stdDeviation="6" in="shadowOffsetOuter1" result="shadowBlurOuter1"/><feColorMatrix values="0 0 0 0 0.607843137 0 0 0 0 0.647058824 0 0 0 0 0.639215686 0 0 0 0.15 0" in="shadowBlurOuter1"/></filter></defs><g fill="none" fill-rule="evenodd"><g transform="translate(12 4)"><use fill="#000" filter="url(#a)" xlink:href="#b"/><use fill="#FFF" xlink:href="#b"/></g><g fill-rule="nonzero" fill="#6F94F0"><path d="M65.167 29.595a2.258 2.258 0 0 1 2.247-2.24c1.441 0 2.501 1.183 2.501 2.24v15.343c0 .38-.042 1.944-1.06 2.917-.593.55-5.383 4.903-6.02 5.494v7.524H54.74v-.042-12.004-.042c0-1.438.975-2.283.975-2.283l8.182-8.073c.508-.507 1.314-.634 1.992-.338.297.084.551.253.763.465.424.38.636.93.636 1.521 0 .55-.212 1.1-.636 1.522l-3.391 3.34.55.59 3.392-3.338c.594-.55.89-1.31.89-2.114 0-.803-.339-1.564-.89-2.113a2.989 2.989 0 0 0-1.992-.888h-.043v-7.481zm-29.122 0v7.481h-.043a2.989 2.989 0 0 0-1.992.888c-.551.55-.89 1.31-.89 2.113 0 .803.296 1.564.89 2.114L37.4 45.53l.551-.55-3.391-3.339a2.142 2.142 0 0 1-.636-1.521c0-.592.212-1.142.636-1.522.212-.211.466-.38.763-.465.678-.296 1.484-.17 1.992.338l8.182 8.158s.975.845.975 2.282V61h-8.097v-7.524c-.593-.676-5.426-5.072-6.02-5.621-1.017-.973-1.06-2.536-1.06-2.917V29.595c0-1.057 1.06-2.24 2.502-2.24a2.258 2.258 0 0 1 2.247 2.24z"/><path d="M51.517 33.695c.467-.254.763-.761.763-1.353 0-.591-.296-1.099-.763-1.352v2.705z"/><path d="M49.186 27.608c0 .55.297 1.057.72 1.31v-2.62c-.466.254-.72.76-.72 1.31z"/><path d="M50.712 20.17c-5.426 0-9.792 4.395-9.792 9.763 0 5.41 4.408 9.764 9.792 9.764 5.384 0 9.792-4.396 9.792-9.764 0-5.368-4.408-9.764-9.792-9.764zm3.391 7.016c-.339.295-.848.295-1.144 0-.212-.212-.806-.719-1.442-.973v3.044a3.175 3.175 0 0 1 2.417 3.085 3.175 3.175 0 0 1-2.417 3.086v.465a.804.804 0 0 1-.805.803.804.804 0 0 1-.805-.803v-.507c-1.4-.423-2.502-1.649-2.629-1.818a.805.805 0 0 1 .085-1.141.81.81 0 0 1 1.145.084c.212.254.805.803 1.399 1.142v-3.001c-1.357-.38-2.374-1.607-2.374-3.044 0-1.48.975-2.705 2.331-3.085v-.508c0-.464.382-.803.806-.803.466 0 .805.38.805.803v.465c1.399.339 2.459 1.395 2.628 1.522.34.338.34.888 0 1.184z"/></g></g></svg>