<svg width="99" height="99" viewBox="0 0 99 99" xmlns="http://www.w3.org/2000/svg" xmlns:xlink="http://www.w3.org/1999/xlink"><defs><circle id="b" cx="37.5" cy="37.5" r="37.5"/><filter x="-29.3%" y="-18.7%" width="158.7%" height="158.7%" filterUnits="objectBoundingBox" id="a"><feOffset dy="8" in="SourceAlpha" result="shadowOffsetOuter1"/><feGaussianBlur stdDeviation="6" in="shadowOffsetOuter1" result="shadowBlurOuter1"/><feColorMatrix values="0 0 0 0 0.607843137 0 0 0 0 0.647058824 0 0 0 0 0.639215686 0 0 0 0.15 0" in="shadowBlurOuter1"/></filter><circle id="c" cx="9" cy="9" r="9"/></defs><g fill="none" fill-rule="evenodd"><g transform="translate(12 4)"><use fill="#000" filter="url(#a)" xlink:href="#b"/><use fill="#FFF" xlink:href="#b"/></g><path d="M31.001 36.791v6.756a2.668 2.668 0 0 0 2.166 2.702 2.533 2.533 0 0 0 2.9-2.491V36.79a5.7 5.7 0 0 1 5.7-5.7h13.3v2.644a2.381 2.381 0 0 0 3.867 1.857l6.658-5.323a2.191 2.191 0 0 0 0-3.424l-6.658-5.324a2.381 2.381 0 0 0-3.868 1.862v2.643H41.767c-5.946 0-10.766 4.82-10.766 10.765zm35.832-.607a2.668 2.668 0 0 1 2.166 2.702v6.755a10.766 10.766 0 0 1-10.766 10.783h-13.3v2.642a2.381 2.381 0 0 1-3.87 1.862l-6.655-5.324a2.191 2.191 0 0 1 0-3.424l6.654-5.328a2.381 2.381 0 0 1 3.872 1.862v2.643h13.299a5.7 5.7 0 0 0 5.7-5.7v-6.966a2.533 2.533 0 0 1 2.9-2.507z" fill="#6B91EE" fill-rule="nonzero"/><g transform="translate(57 43)"><use fill="#6B91EE" xlink:href="#c"/><circle stroke="#FFF" stroke-width="2" cx="9" cy="9" r="10"/></g><path d="M67.066 49.734l1.845 1.846a1.061 1.061 0 0 0 1.501-1.501l-3.656-3.656a1.061 1.061 0 0 0-1.5 0l-3.808 3.807a1.061 1.061 0 1 0 1.501 1.501l1.994-1.994v6.77a1.061 1.061 0 0 0 2.123 0v-6.773z" fill="#FFF" fill-rule="nonzero"/></g></svg>