<svg width="48" height="46" viewBox="0 0 48 46" xmlns="http://www.w3.org/2000/svg"><g fill="#FF9A58" fill-rule="evenodd"><path d="M37.29 12.646c0-3.811-3.006-6.9-6.714-6.9-3.708 0-6.714 3.089-6.714 6.9 0 3.81 3.006 6.9 6.714 6.9 3.708 0 6.713-3.09 6.713-6.9zm5.484 32.775h4.586l-2.395-13.54a4.493 4.493 0 0 0-4.425-3.71H20.61a4.493 4.493 0 0 0-4.423 3.71L13.79 45.42h4.586l1.912-12.025h20.504l1.981 12.025zM18.827 12.646c0-6.67 5.26-12.075 11.749-12.075 6.488 0 11.749 5.406 11.749 12.075 0 6.668-5.26 12.075-11.75 12.075-6.488 0-11.748-5.407-11.748-12.075z" fill-rule="nonzero"/><path d="M21.73 28.17H7.423c-2.15 0-4 1.524-4.41 3.635L.364 45.421h22.734H5.4l2.113-12.075h4.42l1.297-5.175h8.5zM17.831 4.308a9.837 9.837 0 0 0-2.362-.286C9.908 4.02 5.4 8.654 5.4 14.37c0 5.716 4.508 10.35 10.07 10.35 1.6 0 3.112-.384 4.455-1.066a15.568 15.568 0 0 1-2.99-4.332 4.91 4.91 0 0 1-1.465.223c-2.781 0-5.035-2.317-5.035-5.175 0-2.858 2.254-5.175 5.035-5.175.125 0 .249.004.371.013a15.672 15.672 0 0 1 1.99-4.902z"/></g></svg>