<svg width="99" height="99" viewBox="0 0 99 99" xmlns="http://www.w3.org/2000/svg" xmlns:xlink="http://www.w3.org/1999/xlink"><defs><circle id="b" cx="37.5" cy="37.5" r="37.5"/><filter x="-29.3%" y="-18.7%" width="158.7%" height="158.7%" filterUnits="objectBoundingBox" id="a"><feOffset dy="8" in="SourceAlpha" result="shadowOffsetOuter1"/><feGaussianBlur stdDeviation="6" in="shadowOffsetOuter1" result="shadowBlurOuter1"/><feColorMatrix values="0 0 0 0 0.607843137 0 0 0 0 0.647058824 0 0 0 0 0.639215686 0 0 0 0.15 0" in="shadowBlurOuter1"/></filter></defs><g fill="none" fill-rule="evenodd"><g transform="translate(12 4)"><use fill="#000" filter="url(#a)" xlink:href="#b"/><use fill="#FFF" xlink:href="#b"/></g><path d="M33 29v25a4 4 0 0 0 4 4h25a4 4 0 0 0 4-4V29a4 4 0 0 0-4-4H37a4 4 0 0 0-4 4zm23.17 12.048l-4.204-.833v9.9a.697.697 0 0 1-.694.694h-3.578a.697.697 0 0 1-.695-.694v-9.9l-4.134.833c-.66.14-1.111-.66-.66-1.18l6.809-7.47a.696.696 0 0 1 1.042 0l6.808 7.47c.417.52-.035 1.32-.695 1.18z" fill="#57DB9B" fill-rule="nonzero"/></g></svg>