<svg width="99" height="99" viewBox="0 0 99 99" xmlns="http://www.w3.org/2000/svg" xmlns:xlink="http://www.w3.org/1999/xlink"><defs><circle id="b" cx="37.5" cy="37.5" r="37.5"/><filter x="-29.3%" y="-18.7%" width="158.7%" height="158.7%" filterUnits="objectBoundingBox" id="a"><feOffset dy="8" in="SourceAlpha" result="shadowOffsetOuter1"/><feGaussianBlur stdDeviation="6" in="shadowOffsetOuter1" result="shadowBlurOuter1"/><feColorMatrix values="0 0 0 0 0.607843137 0 0 0 0 0.647058824 0 0 0 0 0.639215686 0 0 0 0.15 0" in="shadowBlurOuter1"/></filter></defs><g fill="none" fill-rule="evenodd"><g transform="translate(12 4)"><use fill="#000" filter="url(#a)" xlink:href="#b"/><use fill="#FFF" xlink:href="#b"/></g><path d="M65.985 50.67c0 .463-.078.895-.236 1.296a3.214 3.214 0 0 1-.671 1.058c-.29.304-.63.541-1.016.712-.387.17-.81.255-1.27.255H36.446c-.46 0-.895-.085-1.306-.255a3.45 3.45 0 0 1-1.833-1.77 3.107 3.107 0 0 1-.272-1.295V32.465c0-.924.32-1.709.962-2.353.64-.645 1.421-.967 2.34-.967h26.346c.92 0 1.7.322 2.34.967.642.644.962 1.429.962 2.353v4.962h-8.237c-.92 0-1.7.316-2.341.949-.641.632-.962 1.41-.962 2.335.025.632.158 1.191.4 1.678.193.413.514.79.961 1.13.448.341 1.095.512 1.942.512h8.237v6.64zM61.05 27.468H44.575c1.306-.681 2.54-1.338 3.701-1.97a341.43 341.43 0 0 0 3.012-1.606c.992-.535 1.766-.948 2.323-1.24.847-.462 1.603-.675 2.268-.639.665.037 1.228.152 1.687.347.532.267.992.62 1.38 1.058l2.104 4.05zM56.115 40.71c0-.463.157-.852.471-1.168a1.574 1.574 0 0 1 1.162-.474c.46 0 .846.158 1.16.474.315.316.473.706.473 1.168 0 .462-.158.857-.472 1.185a1.544 1.544 0 0 1-1.161.493c-.46 0-.847-.164-1.162-.493a1.653 1.653 0 0 1-.471-1.185z" fill-rule="nonzero" fill="#26B2F0"/></g></svg>