<svg width="99" height="99" viewBox="0 0 99 99" xmlns="http://www.w3.org/2000/svg" xmlns:xlink="http://www.w3.org/1999/xlink"><defs><circle id="b" cx="37.5" cy="37.5" r="37.5"/><filter x="-29.3%" y="-18.7%" width="158.7%" height="158.7%" filterUnits="objectBoundingBox" id="a"><feOffset dy="8" in="SourceAlpha" result="shadowOffsetOuter1"/><feGaussianBlur stdDeviation="6" in="shadowOffsetOuter1" result="shadowBlurOuter1"/><feColorMatrix values="0 0 0 0 0.607843137 0 0 0 0 0.647058824 0 0 0 0 0.639215686 0 0 0 0.15 0" in="shadowBlurOuter1"/></filter><circle id="c" cx="9" cy="9" r="9"/></defs><g fill="none" fill-rule="evenodd"><g transform="translate(12 4)"><use fill="#000" filter="url(#a)" xlink:href="#b"/><use fill="#FFF" xlink:href="#b"/></g><path d="M47.817 39.962c-5.023 0-9.095-4.02-9.095-8.981 0-4.96 4.072-8.981 9.095-8.981 5.023 0 9.095 4.02 9.095 8.981 0 4.96-4.072 8.981-9.095 8.981zM42.095 41.6h11.81A9.095 9.095 0 0 1 63 50.694V55H33v-4.306a9.095 9.095 0 0 1 9.095-9.095z" fill="#FFC94A" style="mix-blend-mode:multiply"/><g transform="translate(53 37)"><use fill="#FFC94A" xlink:href="#c"/><circle stroke="#FFF" stroke-width="2" cx="9" cy="9" r="10"/></g><path d="M63 44.827l1.739 1.739a1 1 0 1 0 1.414-1.415l-3.444-3.444a1 1 0 0 0-1.415 0l-3.587 3.587a1 1 0 1 0 1.414 1.415L61 44.829v5.436a1 1 0 0 0 2 0v-5.438z" fill="#FFF" fill-rule="nonzero"/></g></svg>