<svg width="122" height="122" viewBox="0 0 122 122" xmlns="http://www.w3.org/2000/svg" xmlns:xlink="http://www.w3.org/1999/xlink"><defs><circle id="b" cx="49" cy="49" r="49"/><filter x="-22.4%" y="-14.3%" width="144.9%" height="144.9%" filterUnits="objectBoundingBox" id="a"><feOffset dy="8" in="SourceAlpha" result="shadowOffsetOuter1"/><feGaussianBlur stdDeviation="6" in="shadowOffsetOuter1" result="shadowBlurOuter1"/><feColorMatrix values="0 0 0 0 0.607843137 0 0 0 0 0.647058824 0 0 0 0 0.639215686 0 0 0 0.15 0" in="shadowBlurOuter1"/></filter><linearGradient x1="21.164%" y1="111.684%" x2="21.164%" y2="8.61%" id="c"><stop stop-color="#8C91F1" offset="0%"/><stop stop-color="#DE5EFD" offset="100%"/></linearGradient><linearGradient x1="32.95%" y1="100%" x2="32.95%" y2="-112.131%" id="d"><stop stop-color="#8C91F1" offset="0%"/><stop stop-color="#DE5EFD" offset="100%"/></linearGradient><path d="M0 37v24h31v-7.806C22.107 53.815 8.062 51.434 3.572 37H0z" id="e"/></defs><g fill="none" fill-rule="evenodd"><g transform="translate(12 4)"><use fill="#000" filter="url(#a)" xlink:href="#b"/><use fill="#FFF" xlink:href="#b"/></g><path d="M19 8.434L4 14.619V57h16V0h-1v8.434z" fill="url(#c)" transform="translate(45 22)"/><g transform="translate(45 22)"><use fill="url(#d)" xlink:href="#e"/><path stroke="#FFF" d="M-.5 36.5h4.44l.11.352C7.75 48.75 18.5 53.566 30.965 52.696l.535-.038V61.5h-32v-25z"/></g></g></svg>