<svg width="227" height="313" viewBox="0 0 227 313" xmlns="http://www.w3.org/2000/svg" xmlns:xlink="http://www.w3.org/1999/xlink"><defs><linearGradient x1="96.598%" y1="69.818%" x2="-16.247%" y2="58.111%" id="a"><stop stop-color="#D0DAD9" offset="0%"/><stop stop-color="#ECF1F2" offset="100%"/></linearGradient><linearGradient x1="50%" y1="3.287%" x2="50%" y2="97.305%" id="c"><stop stop-color="#E9EAEA" offset="0%"/><stop stop-color="#C9CACA" offset="100%"/></linearGradient><ellipse id="b" cx="112.33" cy="42.578" rx="112.33" ry="42.578"/><linearGradient x1="50%" y1="0%" x2="50%" y2="98.127%" id="f"><stop stop-color="#F4F8F7" offset="0%"/><stop stop-color="#ECF3F4" offset="100%"/></linearGradient><path d="M0 42.578v43.964c0 23.185 50.292 41.98 112.33 41.98s112.33-18.795 112.33-41.98V42.578c0 23.515-50.292 42.577-112.33 42.577S0 66.093 0 42.578z" id="e"/><filter x="-1.1%" y="-51.9%" width="102.2%" height="159.4%" filterUnits="objectBoundingBox" id="d"><feMorphology radius=".5" operator="dilate" in="SourceAlpha" result="shadowSpreadOuter1"/><feOffset dy="4" in="shadowSpreadOuter1" result="shadowOffsetOuter1"/><feComposite in="shadowOffsetOuter1" in2="SourceAlpha" operator="out" result="shadowOffsetOuter1"/><feColorMatrix values="0 0 0 0 0.48627451 0 0 0 0 0.549019608 0 0 0 0 0.549019608 0 0 0 0.3 0" in="shadowOffsetOuter1"/></filter><linearGradient x1="0%" y1="50%" y2="50%" id="g"><stop stop-color="#FAFBFB" offset="0%"/><stop stop-color="#ECF1F2" offset="100%"/></linearGradient><ellipse id="h" cx="112.33" cy="42.578" rx="112.33" ry="42.578"/><path d="M0 42.578v43.964c0 23.185 50.292 41.98 112.33 41.98s112.33-18.795 112.33-41.98V42.578c0 23.515-50.292 42.577-112.33 42.577S0 66.093 0 42.578z" id="i"/><linearGradient x1="10.564%" y1="12.635%" x2="133.863%" y2="119.506%" id="j"><stop stop-color="#FFF" offset="0%"/><stop stop-color="#D8FDEE" offset="100%"/></linearGradient><linearGradient x1="56.577%" y1="8.582%" x2="56.577%" y2="192.403%" id="k"><stop stop-color="#69DFFF" stop-opacity="0" offset="0%"/><stop stop-color="#69DFFF" offset="100%"/></linearGradient></defs><g fill="none" fill-rule="evenodd"><g transform="translate(1 179.597)"><use fill="url(#a)" xlink:href="#b"/><ellipse stroke="url(#c)" stroke-width=".5" cx="112.33" cy="42.578" rx="112.58" ry="42.828"/><ellipse stroke="#FFF" cx="112.33" cy="42.578" rx="111.83" ry="42.078"/><ellipse fill="#97A49E" opacity=".527" cx="112.33" cy="40.875" rx="95.688" ry="32.359"/><g><use fill="#000" filter="url(#d)" xlink:href="#e"/><use fill="url(#f)" xlink:href="#e"/><path stroke="url(#c)" stroke-width=".5" d="M.25 42.578c0 23.31 50.171 42.327 112.08 42.327S224.41 65.89 224.41 42.578h.5v43.964c0 23.39-50.412 42.23-112.58 42.23S-.25 109.932-.25 86.542V42.578h.5z"/><path stroke="#FFF" d="M.5 48.365v38.177c0 22.775 50.052 41.48 111.83 41.48s111.83-18.705 111.83-41.48V48.365c-7.376 21.152-54.647 37.29-111.83 37.29S7.875 69.517.5 48.365z"/></g></g><path d="M171.575 258.65c.05 15.333.133 29.798.248 43.397 32.437-7.362 54.106-20.689 54.106-35.908v-43.964c0 15.475-21.78 29.021-54.354 36.476z" fill="#EEF3F3" style="mix-blend-mode:multiply" opacity=".977"/><g transform="translate(1 118.277)"><use fill="url(#g)" xlink:href="#h"/><ellipse stroke="url(#c)" stroke-width=".5" cx="112.33" cy="42.578" rx="112.58" ry="42.828"/><ellipse stroke="#FFF" cx="112.33" cy="42.578" rx="111.83" ry="42.078"/><ellipse fill="#26B2F0" opacity=".4" cx="112.33" cy="40.875" rx="95.688" ry="32.359"/><g opacity=".95"><use fill="url(#f)" xlink:href="#i"/><path stroke="url(#c)" stroke-width=".5" d="M.25 42.578c0 23.31 50.171 42.327 112.08 42.327S224.41 65.89 224.41 42.578h.5v43.964c0 23.39-50.412 42.23-112.58 42.23S-.25 109.932-.25 86.542V42.578h.5z"/><path stroke="#FFF" d="M.5 48.365v38.177c0 22.775 50.052 41.48 111.83 41.48s111.83-18.705 111.83-41.48V48.365c-7.376 21.152-54.647 37.29-111.83 37.29S7.875 69.517.5 48.365z"/></g></g><path d="M171.575 197.33c.05 15.332.133 29.798.248 43.396 32.437-7.361 54.106-20.689 54.106-35.907v-43.965c0 15.475-21.78 29.022-54.354 36.476z" fill="#EEF3F3" style="mix-blend-mode:multiply" opacity=".977"/><g fill-rule="nonzero"><path d="M160.279 153.704V97.35c9.992-11.406 15.499-26.683 14.275-43.385C172.311 25.45 149.062 2.433 120.512.192 87.067-2.456 59.128 22.598 56.884 54.984v1.425c0 5.296-2.039 13.647-4.486 18.332-2.651 4.889-5.302 9.777-7.546 13.24-2.243 3.462.204 7.944 4.283 7.944h7.75v28.312c0 5.703 4.69 10.388 10.4 10.388h21.413v10.795c0 3.549-.669 5.038-1.96 8.284h73.54z" fill="#57DB9B"/><path d="M76.67 17.967l-2.376 8.265a26.736 26.736 0 0 0-6.104 2.537l-7.497-4.174-6.718 6.71 4.178 7.488a26.669 26.669 0 0 0-2.54 6.097l-8.275 2.373v9.492l8.276 2.373a26.67 26.67 0 0 0 2.54 6.097l-4.18 7.488 6.72 6.71 7.496-4.174a26.736 26.736 0 0 0 6.104 2.537l2.376 8.265h9.504l2.376-8.265a26.736 26.736 0 0 0 6.104-2.537l7.497 4.174 6.718-6.71-4.178-7.488a26.67 26.67 0 0 0 2.54-6.097l8.275-2.373v-9.492l-8.275-2.373c-.593-2.15-1.46-4.2-2.54-6.097l4.178-7.488-6.718-6.71-7.497 4.174a26.736 26.736 0 0 0-6.104-2.537l-2.376-8.265H76.67zm4.752 19.64c7.933 0 14.42 6.479 14.42 14.402 0 7.923-6.487 14.403-14.42 14.403s-14.42-6.48-14.42-14.403 6.487-14.402 14.42-14.402zm0 5.237a9.131 9.131 0 0 0-9.176 9.165 9.131 9.131 0 0 0 9.176 9.165 9.131 9.131 0 0 0 9.176-9.165 9.131 9.131 0 0 0-9.176-9.165z" fill="url(#j)" transform="translate(44)"/></g><path d="M16.828 156.097c0 19.908 42.819 36.047 95.638 36.047 52.82 0 95.637-16.139 95.637-36.047V9H16.828v147.097z" fill="url(#k)" opacity=".624" transform="translate(1)"/></g></svg>