<svg width="332" height="241" viewBox="0 0 332 241" xmlns="http://www.w3.org/2000/svg" xmlns:xlink="http://www.w3.org/1999/xlink"><defs><path id="a" d="M331.188 96.413l-165.054 96.415L0 96.415 165.054 0z"/><filter x="-6.2%" y="-10.6%" width="112.3%" height="121.2%" filterUnits="objectBoundingBox" id="b"><feGaussianBlur stdDeviation="2.49" in="SourceGraphic"/></filter><linearGradient x1="0%" y1="0%" x2="106.15%" y2="0%" id="c"><stop stop-color="#FFF" stop-opacity=".484" offset="0%"/><stop stop-color="#FFF" offset="100%"/></linearGradient><linearGradient x1="-22.786%" y1="44.304%" x2="152.955%" y2="44.304%" id="d"><stop stop-color="#FFF" offset="0%"/><stop stop-color="#49FDB4" offset="100%"/></linearGradient></defs><g fill="none" fill-rule="evenodd"><g transform="translate(.65 48.114)" opacity=".5"><use fill="#FFF" xlink:href="#a"/><path stroke="#F6FFFB" d="M330.194 96.415L165.055.579.994 96.413l165.14 95.837 164.06-95.835z"/></g><path fill="#B7D3CC" fill-rule="nonzero" style="mix-blend-mode:multiply" filter="url(#b)" d="M.07 128.997l22.342-13.186 99.067 57.178-22.342 13.163z" transform="translate(106.025 1.855)"/><g fill-rule="nonzero"><path stroke="url(#c)" fill="#BFFEE0" opacity=".95" stroke-linejoin="round" d="M99.071 158.715L.004 101.537V13.415L99.071 70.57z" transform="translate(106.025 26.965)"/><path d="M165.998 109.16c0-5.767-4.597-13.14-10.458-16.472-5.861-3.33-10.458-1.355-10.458 4.411a20.67 20.67 0 0 0 6.573 13.485v13.002a5.995 5.995 0 0 0 2.988 5.192 3.174 3.174 0 0 0 4.758-2.734v-10.98c3.885.666 6.597-1.517 6.597-5.905z" fill="#05F7B9"/><path d="M155.517 92.688a21.006 21.006 0 0 1 5.424 4.595 18.733 18.733 0 0 0-2.62-1.884c-5.77-3.33-10.458-1.355-10.458 4.41a20.67 20.67 0 0 0 6.574 13.485v13.003c.014.885.226 1.756.62 2.55a3.104 3.104 0 0 1-.437-.184 5.995 5.995 0 0 1-2.988-5.192v-12.887a20.67 20.67 0 0 1-6.573-13.485c.045-5.766 4.735-7.742 10.458-4.41z" fill="#00C1BC" style="mix-blend-mode:multiply"/><path stroke="url(#c)" fill="#9CF5CA" opacity=".95" stroke-linejoin="round" d="M121.413 57.407L99.071 70.57v88.145l22.342-13.186z" transform="translate(106.025 26.965)"/><path stroke="url(#c)" fill="url(#d)" opacity=".95" stroke-linejoin="round" d="M.004 13.415L22.346.23l99.067 57.178L99.071 70.57z" transform="translate(106.025 26.965)"/></g><g transform="translate(128.025 1.855)"><ellipse fill="#B2D3CB" style="mix-blend-mode:multiply" transform="rotate(22 6.338 42.027)" cx="6.338" cy="42.027" rx="5.188" ry="3.936"/><path d="M70.183 82.642c2.656 1.074 5.47.31 6.284-1.706.814-2.016-.679-4.52-3.335-5.593-2.657-1.073-5.47-.31-6.285 1.706-.814 2.016.68 4.52 3.336 5.593z" fill="#B2D3CB" style="mix-blend-mode:multiply"/><path d="M71.967 78.083V51.696A50 50 0 0 0 47.784 8.877l-8.523-5.14C29.06-2.412 15.804.87 9.653 11.073a21.569 21.569 0 0 0-3.098 11.137v18.44" stroke="#E0F8F0" stroke-width="5" stroke-linecap="round"/></g></g></svg>