<svg width="90" height="90" viewBox="0 0 90 90" xmlns="http://www.w3.org/2000/svg"><g fill="none" fill-rule="evenodd"><ellipse cx="44.803" cy="45" rx="44.803" ry="44.4" fill="#40D88E"/><path d="M66.287 55.668c0 7.773-3.557 7.757-20.732 7.757-17.173 0-20.731.016-20.731-7.757 0-8.482 9.282-25.405 20.73-25.405 11.451 0 20.733 16.923 20.733 25.405M45.617 33.9c-4.866 0-8.809 3.972-8.809 8.875 0 4.902 3.943 8.874 8.808 8.874 4.863 0 8.808-3.972 8.808-8.874 0-4.903-3.945-8.875-8.808-8.875m-18.46 6.535c3.61-5.825 9.852-12.04 18.357-12.04 8.503 0 15.152 6.725 18.163 11.989 1.558 2.61 4.549 2.335 5.85 0C70.366 38.634 72.984 24 45.512 24c-27.776.037-24.906 15.122-23.932 16.384 1.73 2.645 4.985 1.297 5.576.05" fill="#FFF"/></g></svg>