<svg width="42" height="48" viewBox="0 0 42 48" xmlns="http://www.w3.org/2000/svg"><g fill="none" fill-rule="evenodd"><path d="M0 2v38.853a2 2 0 0 0 2 2h29.6a2 2 0 0 0 2-2v-29.69L22.4 0H2a2 2 0 0 0-2 2z" fill="#CFD1FB" fill-rule="nonzero"/><path d="M22.4 0l11.2 11.163h-9.2a2 2 0 0 1-2-2V0z" fill="#797FF3"/><g transform="translate(4.773 14.4)" fill-rule="nonzero" fill="#FFF"><rect x="12.831" y="10.642" width="10.311" height="2.074" rx="1"/><rect x=".665" y="10.642" width="10.311" height="2.074" rx="1"/><rect x=".665" y="5.457" width="22.684" height="2.074" rx="1"/><rect x=".665" y=".272" width="22.684" height="2.074" rx="1"/></g><path d="M41.498 35.87c.336.324.411.696.227 1.118-.184.431-.504.647-.958.647h-6.202l3.263 7.71c.108.269.108.534 0 .793a1.04 1.04 0 0 1-.553.566L34.4 47.92a1.02 1.02 0 0 1-.796 0 1.04 1.04 0 0 1-.567-.551l-3.101-7.32-5.068 5.054a1 1 0 0 1-1.12.226c-.432-.184-.649-.503-.649-.956V20.013c0-.453.217-.772.649-.955.13-.054.26-.081.389-.081a.97.97 0 0 1 .731.307l16.63 16.586z" fill="#797FF3" fill-rule="nonzero"/></g></svg>