<svg width="50" height="50" viewBox="0 0 50 50" xmlns="http://www.w3.org/2000/svg"><g fill="none" fill-rule="evenodd"><rect fill-opacity=".8" fill="#FFF" opacity=".8" y=".337" width="50" height="49.02" rx="4"/><path d="M14.072 39.547h6.711c.624 0 1.222.245 1.663.683a2.32 2.32 0 0 1 .689 1.647v.001a2.32 2.32 0 0 1-.689 1.648 2.363 2.363 0 0 1-1.663.683h-12.5a2.293 2.293 0 0 1-1.615-.663C6.24 43.122 6 42.547 6 41.947V29.56c0-.618.248-1.211.689-1.648a2.363 2.363 0 0 1 3.327 0 2.32 2.32 0 0 1 .689 1.648v6.65l8.687-8.61a2.396 2.396 0 0 1 3.367 0l.001.002c.93.921.93 2.415 0 3.336l-8.688 8.609z" fill="#FFF"/><path d="M36.923 10.544h-6.71a2.363 2.363 0 0 1-1.663-.682 2.32 2.32 0 0 1-.69-1.648v-.001c0-.618.249-1.21.69-1.648a2.363 2.363 0 0 1 1.663-.683h12.5c.606 0 1.186.239 1.614.663.428.424.669 1 .669 1.599v12.388a2.32 2.32 0 0 1-.689 1.648 2.363 2.363 0 0 1-3.327 0 2.32 2.32 0 0 1-.689-1.648v-6.65l-8.687 8.609a2.396 2.396 0 0 1-3.367 0l-.001-.002a2.344 2.344 0 0 1 0-3.336l8.687-8.609z" fill="#16D18A"/></g></svg>