<svg width="39" height="39" viewBox="0 0 39 39" xmlns="http://www.w3.org/2000/svg"><g fill="none" fill-rule="evenodd"><path d="M36.85 9.881l-1.993 2.002a5.434 5.434 0 0 1-7.7 0 5.493 5.493 0 0 1 0-7.736s.892-.894 1.991-2.001c1.1-1.104.366-2.405-1.615-2.097a9.913 9.913 0 0 0-5.508 2.809c-2.472 2.483-3.368 5.956-2.701 9.16L2.618 28.8c-2.123 2.13-2.123 5.6 0 7.733a5.43 5.43 0 0 0 7.699 0L27.025 19.75c3.19.67 6.644-.23 9.116-2.71a9.971 9.971 0 0 0 2.796-5.533c.307-1.99-.988-2.73-2.087-1.626z" fill="#37C4FD"/><path d="M5.936 10.215L3.243 8.8.034 4.287 2.601 1.71l4.493 3.223 1.409 2.704 6.29 6.32-2.568 2.58-6.29-6.321zm21.05 13.408l9.082 9.124a3.659 3.659 0 0 1 0 5.157 3.625 3.625 0 0 1-5.134 0l-9.082-9.123a.915.915 0 0 1 0-1.29l3.85-3.868a.905.905 0 0 1 1.284 0z" fill="#87DCFE"/></g></svg>