<svg width="47" height="54" viewBox="0 0 47 54" xmlns="http://www.w3.org/2000/svg"><g fill="none" fill-rule="evenodd"><g fill-rule="nonzero"><rect fill-opacity=".8" fill="#FFF" opacity=".8" width="47" height="54" rx="2"/><rect fill="#16D18A" x="8.024" y="4.596" width="30.951" height="4.596" rx="1"/></g><g transform="translate(9 15)" fill="#FFF"><path d="M14.5 30C7.044 30 1 23.956 1 16.5S7.044 3 14.5 3 28 9.044 28 16.5 21.956 30 14.5 30zm0-2C20.851 28 26 22.851 26 16.5S20.851 5 14.5 5 3 10.149 3 16.5 8.149 28 14.5 28z" fill-rule="nonzero"/><circle cx="14.5" cy="4.5" r="4.5"/><circle cx="4.5" cy="23.5" r="4.5"/><circle cx="24.5" cy="23.5" r="4.5"/></g></g></svg>