<svg width="47" height="60" viewBox="0 0 47 60" xmlns="http://www.w3.org/2000/svg"><g fill="none" fill-rule="evenodd"><path d="M25.875 0C16.58 0 8.01 6.979 6.23 14.665c-.395 1.708-.843 6.171-.843 6.171L.127 31.251a1.585 1.585 0 0 0-.127.641c0 .91.734 1.649 1.648 1.649h3.739v6.083c0 4.76 2.075 8.004 8.071 8.004h1.422v7.427h4.918v4.038h2.067v-4.038h3.598v4.038h2.067v-4.038h3.596v4.038h2.066v-4.038h5.33V37.732c4.766-3.747 7.831-10.715 7.831-17.246C46.355 9.17 37.19 0 25.875 0zm-4.988 52.904a1.425 1.425 0 1 1 .002-2.85 1.425 1.425 0 0 1-.002 2.85zm5.68 0a1.425 1.425 0 1 1 .003-2.85 1.425 1.425 0 0 1-.003 2.85zm5.68 0a1.425 1.425 0 1 1 0-2.85 1.425 1.425 0 0 1 0 2.85z" fill-opacity=".8" fill="#FFF" fill-rule="nonzero" opacity=".8"/><g transform="translate(12 4)"><path d="M12.96 0a.874.874 0 0 0-.872.873v2.053a11.804 11.804 0 0 0-4.08 1.668L6.57 3.157a.871.871 0 0 0-1.232 0L3.157 5.338a.871.871 0 0 0 0 1.232l1.437 1.437a11.844 11.844 0 0 0-1.694 4.08H.873A.874.874 0 0 0 0 12.96v3.105c0 .481.392.847.873.847H2.9a11.84 11.84 0 0 0 1.694 4.08L3.157 22.43a.871.871 0 0 0 0 1.232l2.181 2.207c.34.34.892.34 1.232 0l1.437-1.463c1.219.8 2.605 1.388 4.08 1.694v2.053c0 .48.392.847.873.847h3.105a.83.83 0 0 0 .847-.847V26.1a11.85 11.85 0 0 0 4.08-1.694l1.438 1.463c.34.34.892.34 1.232 0l2.207-2.207a.871.871 0 0 0 0-1.232l-1.463-1.437a11.847 11.847 0 0 0 1.694-4.08h2.053a.83.83 0 0 0 .847-.848V12.96c0-.48-.366-.872-.847-.872H26.1a11.848 11.848 0 0 0-1.694-4.08L25.87 6.57a.871.871 0 0 0 0-1.232l-2.207-2.181a.871.871 0 0 0-1.232 0l-1.437 1.437a11.804 11.804 0 0 0-4.08-1.668V.873c0-.481-.367-.873-.848-.873H12.96z" fill="#16D18A"/><circle fill="#FFF" cx="14.5" cy="14.5" r="8.5"/></g></g></svg>