<svg width="41" height="48" viewBox="0 0 41 48" xmlns="http://www.w3.org/2000/svg"><g fill="none" fill-rule="evenodd"><path d="M40.597 5.197S29.25 6.354 20.463 0C11.634 6.354.543 5.197.543 5.197-.037 7.725-2.025 39.01 20.513 48 43.342 39.01 41.12 7.883 40.596 5.197z" fill="#FFDEAB"/><path d="M20.463 0C11.634 6.354.543 5.197.543 5.197-.037 7.725-2.025 39.01 20.513 48l-.05-48z" fill="#FFBE58"/><path d="M11.444 18.894l6.225 3.081a1 1 0 0 0 .98-.053l12.19-7.765a1 1 0 0 1 1.254 1.541L19.585 28.526a1 1 0 0 1-1.43.001l-7.87-8.037a1 1 0 0 1 1.159-1.596z" fill="#FFF"/></g></svg>