<svg width="34" height="43" viewBox="0 0 34 43" xmlns="http://www.w3.org/2000/svg"><g fill="none" fill-rule="evenodd"><path d="M5.484 2v33.487a2 2 0 0 0 2 2H32a2 2 0 0 0 2-2V2a2 2 0 0 0-2-2H7.484a2 2 0 0 0-2 2z" fill="#FC9641" fill-rule="nonzero"/><path d="M0 7.513V41a2 2 0 0 0 2 2h24.516a2 2 0 0 0 2-2V7.513a2 2 0 0 0-2-2H2a2 2 0 0 0-2 2z" fill="#FCC89C" fill-rule="nonzero"/><g transform="translate(4.29 15.436)" fill="#FFF"><g transform="translate(0 1.103)" fill-rule="nonzero"><rect x=".045" y="5.972" width="19.947" height="2.115" rx="1"/><rect x=".045" y="11.944" width="19.947" height="2.115" rx="1"/><rect x="5.916" width="14.076" height="2.115" rx="1"/></g><ellipse cx="2.29" cy="2.205" rx="2.194" ry="2.205"/></g></g></svg>