<svg width="48" height="51" viewBox="0 0 48 51" xmlns="http://www.w3.org/2000/svg"><g fill="none" fill-rule="evenodd"><path d="M35.393 5.859C35.393 2.624 27.47 0 17.695 0 7.922 0 0 2.624 0 5.859v7.81c0 .687.374 1.342 1.03 1.953C.373 16.234 0 16.889 0 17.575v7.812c0 .686.374 1.34 1.027 1.952C.374 27.951 0 28.607 0 29.292v7.81c0 3.237 7.922 5.859 17.695 5.859 9.775 0 17.698-2.622 17.698-5.858v-7.811c0-.685-.375-1.34-1.03-1.953.654-.612 1.03-1.266 1.03-1.952v-7.812c0-.686-.375-1.34-1.03-1.953.654-.61 1.03-1.266 1.03-1.953V5.86zM1.966 29.292c0-.326.179-.642.482-.944 3.074 1.73 8.742 2.897 15.247 2.897 6.505 0 12.175-1.166 15.25-2.897.301.302.48.618.48.944 0 2.157-7.043 3.905-15.73 3.905-8.686 0-15.729-1.748-15.729-3.905zm0-11.717c0-.326.179-.64.482-.943 3.074 1.73 8.742 2.896 15.247 2.896 6.505 0 12.175-1.166 15.25-2.896.301.302.48.617.48.943 0 2.157-7.043 3.906-15.73 3.906-8.686 0-15.729-1.749-15.729-3.906zm0-11.716c0-2.158 7.043-4.195 15.73-4.195 8.686 0 15.73 2.037 15.73 4.195 0 2.156-7.044 3.905-15.73 3.905-8.687 0-15.73-1.749-15.73-3.905z" fill="#57DB9B" fill-rule="nonzero"/><circle fill="#A5F6CF" cx="33" cy="36" r="15"/><path d="M40.094 30.546h2.521v11.452h-2.52V30.546zm-3.218 6.364h2.52v5.088h-2.52V36.91zm-3.22-2.545h2.522v7.633h-2.521v-7.633zM30.439 28h2.52v13.998h-2.52V28zm-3.219 3.819h2.521v10.179h-2.52v-10.18zM24 33.092h2.521v8.906H24v-8.906z" fill="#FFF" fill-rule="nonzero"/></g></svg>