<svg width="534" height="196" viewBox="0 0 534 196" xmlns="http://www.w3.org/2000/svg" xmlns:xlink="http://www.w3.org/1999/xlink"><defs><path d="M2.48 0h58.87a2 2 0 0 1 1.618.824l15.771 21.688a2 2 0 0 0 1.598.824l59.785.57a2 2 0 0 1 1.98 2v89.72a2 2 0 0 1-2 2H2.482a2 2 0 0 1-2-2V2a2 2 0 0 1 2-2z" id="b"/><filter x="-1.8%" y="-2.1%" width="107.1%" height="108.5%" filterUnits="objectBoundingBox" id="a"><feOffset dx="5" dy="5" in="SourceAlpha" result="shadowOffsetOuter1"/><feColorMatrix values="0 0 0 0 0.756862745 0 0 0 0 0.776470588 0 0 0 0 0.780392157 0 0 0 0.5 0" in="shadowOffsetOuter1"/></filter><path d="M11.489 0h71.003c6.345 0 11.489 5.048 11.489 11.273v162.79c0 6.225-5.145 11.272-11.489 11.272H11.49C5.144 185.335 0 180.288 0 174.062V11.272C0 5.048 5.145 0 11.489 0z" id="d"/><filter x="-2.7%" y="-1.3%" width="110.6%" height="105.4%" filterUnits="objectBoundingBox" id="c"><feOffset dx="5" dy="5" in="SourceAlpha" result="shadowOffsetOuter1"/><feColorMatrix values="0 0 0 0 0.756862745 0 0 0 0 0.776470588 0 0 0 0 0.780392157 0 0 0 0.5 0" in="shadowOffsetOuter1"/></filter><rect id="e" x="5.209" y="19.481" width="83.014" height="138.654" rx=".9"/><linearGradient x1="50%" y1="3.287%" x2="50%" y2="97.305%" id="h"><stop stop-color="#E9ECEC" offset="0%"/><stop stop-color="#CAD0D2" offset="100%"/></linearGradient><path id="g" d="M11.662 22.157h136.441v100.809H11.662z"/><filter x="-1.1%" y="-1.5%" width="103.7%" height="105%" filterUnits="objectBoundingBox" id="f"><feMorphology radius=".5" operator="dilate" in="SourceAlpha" result="shadowSpreadOuter1"/><feOffset dx="2" dy="2" in="shadowSpreadOuter1" result="shadowOffsetOuter1"/><feComposite in="shadowOffsetOuter1" in2="SourceAlpha" operator="out" result="shadowOffsetOuter1"/><feColorMatrix values="0 0 0 0 0.654901961 0 0 0 0 0.68627451 0 0 0 0 0.68627451 0 0 0 0.3 0" in="shadowOffsetOuter1"/></filter><rect id="j" width="159.687" height="37.825" rx="4"/><filter x="-1.6%" y="-6.6%" width="106.3%" height="126.4%" filterUnits="objectBoundingBox" id="i"><feOffset dx="5" dy="5" in="SourceAlpha" result="shadowOffsetOuter1"/><feColorMatrix values="0 0 0 0 0.756862745 0 0 0 0 0.776470588 0 0 0 0 0.780392157 0 0 0 0.5 0" in="shadowOffsetOuter1"/></filter><rect id="l" width="159.687" height="37.825" rx="4"/><filter x="-1.6%" y="-6.6%" width="106.3%" height="126.4%" filterUnits="objectBoundingBox" id="k"><feOffset dx="5" dy="5" in="SourceAlpha" result="shadowOffsetOuter1"/><feColorMatrix values="0 0 0 0 0.756862745 0 0 0 0 0.776470588 0 0 0 0 0.780392157 0 0 0 0.5 0" in="shadowOffsetOuter1"/></filter><rect id="n" width="159.687" height="37.825" rx="4"/><filter x="-1.6%" y="-6.6%" width="106.3%" height="126.4%" filterUnits="objectBoundingBox" id="m"><feOffset dx="5" dy="5" in="SourceAlpha" result="shadowOffsetOuter1"/><feColorMatrix values="0 0 0 0 0.756862745 0 0 0 0 0.776470588 0 0 0 0 0.780392157 0 0 0 0.5 0" in="shadowOffsetOuter1"/></filter><path d="M96.69 165.257h21.404v-9.449a2 2 0 0 1 2-2h17.364a2 2 0 0 1 2 2v9.45h19.943a2 2 0 0 1 2 2V183a2 2 0 0 1-2 2H96.69a2 2 0 0 1-2-2v-15.743a2 2 0 0 1 2-2z" id="p"/><filter x="-3.7%" y="-8%" width="115%" height="132.1%" filterUnits="objectBoundingBox" id="o"><feOffset dx="5" dy="5" in="SourceAlpha" result="shadowOffsetOuter1"/><feColorMatrix values="0 0 0 0 0.756862745 0 0 0 0 0.776470588 0 0 0 0 0.780392157 0 0 0 0.5 0" in="shadowOffsetOuter1"/></filter><linearGradient x1="50%" y1="3.287%" x2="50%" y2="97.305%" id="t"><stop stop-color="#F7F7F7" offset="0%"/><stop stop-color="#E0E5E6" offset="100%"/></linearGradient><path d="M111.743 142.06c0-13.447-10.972-24.387-24.46-24.387-.712 0-1.415.039-2.111.098C81.084 105.153 69.196 96 55.2 96c-16.052 0-29.328 12.037-31.245 27.532a21.695 21.695 0 0 0-2.369-.133C9.683 123.4 0 133.055 0 144.923c0 11.867 9.683 21.523 21.586 21.523.327 0 .65-.01.974-.025v.025h65.278v-.015c13.231-.296 23.905-11.11 23.905-24.371z" id="r"/><filter x="-2.7%" y="-4.3%" width="109.8%" height="115.6%" filterUnits="objectBoundingBox" id="q"><feMorphology radius=".5" operator="dilate" in="SourceAlpha" result="shadowSpreadOuter1"/><feOffset dx="5" dy="5" in="shadowSpreadOuter1" result="shadowOffsetOuter1"/><feComposite in="shadowOffsetOuter1" in2="SourceAlpha" operator="out" result="shadowOffsetOuter1"/><feColorMatrix values="0 0 0 0 0.756862745 0 0 0 0 0.776470588 0 0 0 0 0.780392157 0 0 0 0.5 0" in="shadowOffsetOuter1"/></filter><filter x="-2.7%" y="-4.3%" width="109.8%" height="115.6%" filterUnits="objectBoundingBox" id="s"><feOffset dx="-5" in="SourceAlpha" result="shadowOffsetInner1"/><feComposite in="shadowOffsetInner1" in2="SourceAlpha" operator="arithmetic" k2="-1" k3="1" result="shadowInnerInner1"/><feColorMatrix values="0 0 0 0 0.611764706 0 0 0 0 0.62745098 0 0 0 0 0.631372549 0 0 0 0.1 0" in="shadowInnerInner1"/></filter></defs><g fill="none" fill-rule="evenodd"><g transform="translate(25 67.832)"><use fill="#000" filter="url(#a)" xlink:href="#b"/><use fill="#F0F5F8" xlink:href="#b"/></g><g transform="translate(434.717)"><use fill="#000" filter="url(#c)" xlink:href="#d"/><use fill="#F0F5F8" xlink:href="#d"/><ellipse fill="#E2E5E4" opacity=".6" style="mix-blend-mode:multiply" cx="46.878" cy="171.437" rx="7.813" ry="7.793"/><rect fill="#E2E5E4" style="mix-blend-mode:multiply" x="37.763" y="9.091" width="18.153" height="1.578" rx=".518"/><use fill="#11D06F" xlink:href="#e"/></g><g transform="translate(445.414 32.077)"><rect fill="#FFF" width="72.637" height="38.285" rx=".9"/><g transform="translate(7.264 8.278)" fill="#E2E5E4"><rect opacity=".6" style="mix-blend-mode:multiply" y="18.625" width="50.846" height="4.139" rx="2.069"/><rect opacity=".6" style="mix-blend-mode:multiply" y="9.313" width="57.072" height="4.139" rx="2.069"/><rect style="mix-blend-mode:multiply" width="30.092" height="4.139" rx="2.069"/></g></g><g transform="translate(445.414 78.64)"><rect fill="#FFF" width="72.637" height="38.285" rx=".9"/><g transform="translate(7.264 7.243)" fill="#E2E5E4"><rect opacity=".6" style="mix-blend-mode:multiply" y="18.625" width="50.846" height="4.139" rx="2.069"/><rect opacity=".6" style="mix-blend-mode:multiply" y="9.313" width="57.072" height="4.139" rx="2.069"/><rect style="mix-blend-mode:multiply" width="30.092" height="4.139" rx="2.069"/></g></g><path d="M446.314 125.202h70.837a.9.9 0 0 1 .9.9v32.083h-72.637v-32.083a.9.9 0 0 1 .9-.9z" fill="#FFF"/><g transform="translate(452.678 132.446)" fill="#E2E5E4"><rect opacity=".6" style="mix-blend-mode:multiply" y="18.625" width="50.846" height="4.139" rx="2.069"/><rect opacity=".6" style="mix-blend-mode:multiply" y="9.313" width="57.072" height="4.139" rx="2.069"/><rect style="mix-blend-mode:multiply" width="30.092" height="4.139" rx="2.069"/></g><g><g fill-rule="nonzero" transform="translate(221.721 6.898)"><use fill="#000" filter="url(#f)" xlink:href="#g"/><use fill="#C2CAD6" fill-rule="evenodd" xlink:href="#g"/><path stroke="url(#h)" stroke-width=".5" d="M11.412 21.907h136.941v101.309H11.412z"/></g><g transform="translate(221.721 6.898)"><use fill="#000" filter="url(#i)" xlink:href="#j"/><use fill="#F0F5F8" xlink:href="#j"/></g><g transform="translate(221.721 54.214)"><use fill="#000" filter="url(#k)" xlink:href="#l"/><use fill="#F0F5F8" xlink:href="#l"/></g><g transform="translate(221.721 102.525)"><use fill="#000" filter="url(#m)" xlink:href="#n"/><use fill="#F0F5F8" xlink:href="#n"/></g><path d="M173.95 181.677h256.497" stroke-opacity=".7" stroke="#7D949D" stroke-dasharray="3,3"/><path fill="#11D06F" d="M238.935 21.844h14.313v6h-14.313z"/><path fill="#FFBE58" d="M259.383 21.844h14.313v6h-14.313z"/><g><path fill="#11D06F" d="M238.935 68.982h14.313v6h-14.313z"/><path fill="#FFBE58" d="M259.383 68.982h14.313v6h-14.313z"/></g><g fill="#C2CAD6"><path d="M232.034 178.204h133.422v8.048H232.034z"/><path d="M297.596 171.31v-24.153h8.048v24.154z"/></g><g><path fill="#11D06F" d="M238.935 117.27h14.313v6h-14.313z"/><path fill="#FFBE58" d="M259.383 117.27h14.313v6h-14.313z"/></g><g transform="translate(173 6)"><use fill="#000" filter="url(#o)" xlink:href="#p"/><use fill="#F0F5F8" xlink:href="#p"/></g></g><g transform="translate(1)"><use fill="#000" filter="url(#q)" xlink:href="#r"/><use fill="#FFF" xlink:href="#r"/><use fill="#000" filter="url(#s)" xlink:href="#r"/><path stroke="url(#t)" stroke-width=".5" d="M88.088 166.674v.022H22.31v-.015c-.26.01-.495.015-.724.015-12.04 0-21.836-9.767-21.836-21.773s9.796-21.774 21.836-21.774c.711 0 1.427.037 2.152.109 2.057-15.634 15.5-27.508 31.462-27.508 13.787 0 25.892 8.893 30.148 21.755a24.52 24.52 0 0 1 1.936-.082c13.625 0 24.709 11.051 24.709 24.637 0 13.292-10.628 24.188-23.905 24.614z"/></g></g></svg>