<svg width="362" height="285" viewBox="0 0 362 285" xmlns="http://www.w3.org/2000/svg"><defs><linearGradient x1="-22.786%" y1="44.304%" x2="152.955%" y2="44.304%" id="b"><stop stop-color="#FFF" offset="0%"/><stop stop-color="#49FDB4" offset="100%"/></linearGradient><linearGradient x1="0%" y1="0%" x2="106.15%" y2="0%" id="a"><stop stop-color="#FFF" stop-opacity=".484" offset="0%"/><stop stop-color="#FFF" offset="100%"/></linearGradient><filter x="-3.4%" y="-8.3%" width="106.8%" height="116.6%" filterUnits="objectBoundingBox" id="c"><feGaussianBlur stdDeviation="1" in="SourceGraphic"/></filter><filter x="-3.4%" y="-8.3%" width="106.8%" height="116.6%" filterUnits="objectBoundingBox" id="d"><feGaussianBlur stdDeviation="1" in="SourceGraphic"/></filter><linearGradient x1="0%" y1="44.304%" y2="44.304%" id="e"><stop stop-color="#D5FFA0" offset="0%"/><stop stop-color="#D9FF00" offset="100%"/></linearGradient><filter x="-2.9%" y="-6.9%" width="105.7%" height="113.9%" filterUnits="objectBoundingBox" id="f"><feGaussianBlur stdDeviation="1" in="SourceGraphic"/></filter><filter x="-2.9%" y="-6.9%" width="105.7%" height="113.9%" filterUnits="objectBoundingBox" id="g"><feGaussianBlur stdDeviation="1" in="SourceGraphic"/></filter></defs><g fill="none" fill-rule="evenodd"><path d="M242.213 118.027h.06V24.786h-.06c.04-.315.06-.632.06-.952 0-9.983-19.622-18.077-43.826-18.077s-43.825 8.094-43.825 18.077c0 .32.02.637.06.952h-.06v93.24h.06c1.199 9.542 20.335 17.127 43.765 17.127s42.566-7.585 43.766-17.126z" fill="#2FD682"/><g transform="translate(147 73.31)"><ellipse stroke="url(#a)" fill="url(#b)" opacity=".95" stroke-linejoin="round" cx="51.447" cy="23.786" rx="51.447" ry="23.786"/><ellipse fill="#0BD076" opacity=".527" cx="51.447" cy="22.834" rx="43.825" ry="18.077"/><ellipse fill="#07B666" opacity=".567" filter="url(#c)" cx="51.447" cy="19.029" rx="43.825" ry="18.077"/><path d="M0 23.786v24.56C0 61.3 23.034 71.799 51.447 71.799c28.414 0 51.447-10.5 51.447-23.451V23.786c0 13.137-23.033 23.786-51.447 23.786C23.034 47.572 0 36.922 0 23.786z" stroke="url(#a)" fill="#BFFEE0" opacity=".95" stroke-linejoin="round"/></g><g transform="translate(147 37.155)"><ellipse stroke="url(#a)" fill="url(#b)" opacity=".95" stroke-linejoin="round" cx="51.447" cy="23.786" rx="51.447" ry="23.786"/><ellipse fill="#0BD076" opacity=".527" cx="51.447" cy="22.834" rx="43.825" ry="18.077"/><ellipse fill="#07B666" opacity=".567" filter="url(#d)" cx="51.447" cy="19.029" rx="43.825" ry="18.077"/><path d="M0 23.786v24.56C0 61.3 23.034 71.799 51.447 71.799c28.414 0 51.447-10.5 51.447-23.451V23.786c0 13.137-23.033 23.786-51.447 23.786C23.034 47.572 0 36.922 0 23.786z" stroke="url(#a)" fill="#BFFEE0" opacity=".95" stroke-linejoin="round"/></g><g transform="translate(147 1)"><path d="M0 23.786v24.56C0 61.3 23.034 71.799 51.447 71.799c28.414 0 51.447-10.5 51.447-23.451V23.786c0 13.137-23.033 23.786-51.447 23.786C23.034 47.572 0 36.922 0 23.786z" stroke="url(#a)" fill="#BFFEE0" opacity=".95" stroke-linejoin="round"/><path d="M78.123 44.163c.023 8.565.061 16.646.114 24.243 14.856-4.112 24.78-11.558 24.78-20.06v-24.56c0 8.645-9.974 16.213-24.894 20.377z" fill="#09E38F" opacity=".302"/><path d="M78.123 80.318c.023 8.565.061 16.646.114 24.243 14.856-4.113 24.78-11.558 24.78-20.06v-24.56c0 8.644-9.974 16.212-24.894 20.377z" fill="#09E38F" opacity=".302"/><path d="M78.123 116.472c.023 8.566.061 16.647.114 24.243 14.856-4.112 24.78-11.557 24.78-20.06v-24.56c0 8.645-9.974 16.213-24.894 20.377z" fill="#09E38F" opacity=".302"/><ellipse stroke="url(#a)" fill="url(#b)" opacity=".95" stroke-linejoin="round" cx="51.447" cy="23.786" rx="51.447" ry="23.786"/><ellipse stroke-opacity=".852" stroke="#FFF" fill="url(#e)" opacity=".532" stroke-linejoin="round" cx="51.447" cy="22.834" rx="43.825" ry="18.077"/></g><path d="M171.046 164.977h.072V53.382h-.072c.048-.378.072-.757.072-1.14 0-11.948-23.503-21.635-52.494-21.635-28.992 0-52.495 9.687-52.495 21.636 0 .382.024.761.072 1.139h-.072v111.595h.072c1.437 11.42 24.358 20.497 52.423 20.497 28.064 0 50.985-9.077 52.422-20.497z" fill="#2FD682"/><g transform="translate(57 111.457)"><ellipse stroke="url(#a)" fill="url(#b)" opacity=".95" stroke-linejoin="round" cx="61.624" cy="28.468" rx="61.624" ry="28.468"/><ellipse fill="#0BD076" opacity=".527" cx="61.624" cy="27.329" rx="52.494" ry="21.636"/><ellipse fill="#07B666" opacity=".567" filter="url(#f)" cx="61.624" cy="22.775" rx="52.494" ry="21.636"/><path d="M0 28.468v29.396c0 15.501 27.59 28.068 61.624 28.068 34.033 0 61.623-12.567 61.623-28.068V28.468c0 15.723-27.59 28.468-61.623 28.468C27.59 56.936 0 44.191 0 28.468z" stroke="url(#a)" fill="#BFFEE0" opacity=".95" stroke-linejoin="round"/></g><g transform="translate(57 68.185)"><ellipse stroke="url(#a)" fill="url(#b)" opacity=".95" stroke-linejoin="round" cx="61.624" cy="28.468" rx="61.624" ry="28.468"/><ellipse fill="#0BD076" opacity=".527" cx="61.624" cy="27.329" rx="52.494" ry="21.636"/><ellipse fill="#07B666" opacity=".567" filter="url(#g)" cx="61.624" cy="22.775" rx="52.494" ry="21.636"/><path d="M0 28.468v29.396c0 15.501 27.59 28.068 61.624 28.068 34.033 0 61.623-12.567 61.623-28.068V28.468c0 15.723-27.59 28.468-61.623 28.468C27.59 56.936 0 44.191 0 28.468z" stroke="url(#a)" fill="#BFFEE0" opacity=".95" stroke-linejoin="round"/></g><g transform="translate(57 24.913)"><path d="M0 28.468v29.396c0 15.501 27.59 28.068 61.624 28.068 34.033 0 61.623-12.567 61.623-28.068V28.468c0 15.723-27.59 28.468-61.623 28.468C27.59 56.936 0 44.191 0 28.468z" stroke="url(#a)" fill="#BFFEE0" opacity=".95" stroke-linejoin="round"/><path d="M93.576 52.857c.028 10.25.073 19.923.137 29.015 17.794-4.922 29.682-13.833 29.682-24.008V28.468c0 10.347-11.948 19.404-29.819 24.389z" fill="#09E38F" opacity=".302"/><path d="M93.576 96.128c.028 10.252.073 19.923.137 29.016 17.794-4.923 29.682-13.833 29.682-24.009V71.74c0 10.347-11.948 19.404-29.819 24.388z" fill="#09E38F" opacity=".302"/><path d="M93.576 139.4c.028 10.251.073 19.923.137 29.015 17.794-4.922 29.682-13.833 29.682-24.008v-29.395c0 10.346-11.948 19.404-29.819 24.388z" fill="#09E38F" opacity=".302"/><ellipse stroke="url(#a)" fill="url(#b)" opacity=".95" stroke-linejoin="round" cx="61.624" cy="28.468" rx="61.624" ry="28.468"/><ellipse stroke-opacity=".852" stroke="#FFF" fill="url(#e)" opacity=".532" stroke-linejoin="round" cx="61.624" cy="27.329" rx="52.494" ry="21.636"/></g><g><path d="M67 86.826c-1.657 0-3-1.587-3-3.546 0-1.958 1.343-3.546 3-3.546s3 1.588 3 3.546c0 1.959-1.343 3.546-3 3.546zm9 4.433c-1.657 0-3-1.588-3-3.546 0-1.959 1.343-3.546 3-3.546s3 1.587 3 3.546c0 1.958-1.343 3.546-3 3.546zm9 3.546c-1.657 0-3-1.588-3-3.546 0-1.959 1.343-3.546 3-3.546s3 1.587 3 3.546c0 1.958-1.343 3.546-3 3.546z" fill="#6BC3A3"/><path d="M66 86.826c-1.657 0-3-1.587-3-3.546 0-1.958 1.343-3.546 3-3.546s3 1.588 3 3.546c0 1.959-1.343 3.546-3 3.546zm9 4.433c-1.657 0-3-1.588-3-3.546 0-1.959 1.343-3.546 3-3.546s3 1.587 3 3.546c0 1.958-1.343 3.546-3 3.546zm9 3.546c-1.657 0-3-1.588-3-3.546 0-1.959 1.343-3.546 3-3.546s3 1.587 3 3.546c0 1.958-1.343 3.546-3 3.546z" fill="#FFE813"/></g><g><path d="M67 131.826c-1.657 0-3-1.587-3-3.546 0-1.958 1.343-3.546 3-3.546s3 1.588 3 3.546c0 1.959-1.343 3.546-3 3.546zm9 4.433c-1.657 0-3-1.588-3-3.546 0-1.959 1.343-3.546 3-3.546s3 1.587 3 3.546c0 1.958-1.343 3.546-3 3.546zm9 3.546c-1.657 0-3-1.588-3-3.546 0-1.959 1.343-3.546 3-3.546s3 1.587 3 3.546c0 1.958-1.343 3.546-3 3.546z" fill="#6BC3A3"/><path d="M66 131.826c-1.657 0-3-1.587-3-3.546 0-1.958 1.343-3.546 3-3.546s3 1.588 3 3.546c0 1.959-1.343 3.546-3 3.546zm9 4.433c-1.657 0-3-1.588-3-3.546 0-1.959 1.343-3.546 3-3.546s3 1.587 3 3.546c0 1.958-1.343 3.546-3 3.546zm9 3.546c-1.657 0-3-1.588-3-3.546 0-1.959 1.343-3.546 3-3.546s3 1.587 3 3.546c0 1.958-1.343 3.546-3 3.546z" fill="#FFE813"/></g><g><path d="M67 172.826c-1.657 0-3-1.587-3-3.546 0-1.958 1.343-3.546 3-3.546s3 1.588 3 3.546c0 1.959-1.343 3.546-3 3.546zm9 4.433c-1.657 0-3-1.588-3-3.546 0-1.959 1.343-3.546 3-3.546s3 1.587 3 3.546c0 1.958-1.343 3.546-3 3.546zm9 3.546c-1.657 0-3-1.588-3-3.546 0-1.959 1.343-3.546 3-3.546s3 1.587 3 3.546c0 1.958-1.343 3.546-3 3.546z" fill="#6BC3A3"/><path d="M66 172.826c-1.657 0-3-1.587-3-3.546 0-1.958 1.343-3.546 3-3.546s3 1.588 3 3.546c0 1.959-1.343 3.546-3 3.546zm9 4.433c-1.657 0-3-1.588-3-3.546 0-1.959 1.343-3.546 3-3.546s3 1.587 3 3.546c0 1.958-1.343 3.546-3 3.546zm9 3.546c-1.657 0-3-1.588-3-3.546 0-1.959 1.343-3.546 3-3.546s3 1.587 3 3.546c0 1.958-1.343 3.546-3 3.546z" fill="#FFE813"/></g><path stroke="#ECFF00" d="M164.636 188l59.496 34.413L143 268.8l26.241 15.239"/><path stroke="#ECFF00" d="M217 144l45.612 26.72 32.582-19.22 66.058 38.755"/><path d="M73.195 188L23 217.264" stroke="#ECFF00"/><path stroke="#ECFF00" d="M56.167 125.538L0 92.9l30.962-18.564L4.606 58"/></g></svg>