<svg width="90" height="90" viewBox="0 0 90 90" xmlns="http://www.w3.org/2000/svg"><g fill="none" fill-rule="evenodd"><ellipse cx="44.803" cy="45" rx="44.803" ry="44.4" fill="#7695F8" opacity=".8"/><path d="M44.746 44.413c-6.983 0-12.645-5.681-12.645-12.69 0-7.008 5.662-12.689 12.645-12.689s12.644 5.681 12.644 12.69c0 7.008-5.66 12.69-12.644 12.69zM33.24 46.726H56.76a9.095 9.095 0 0 1 9.095 9.095v9.84H24.146v-9.84a9.095 9.095 0 0 1 9.095-9.095z" fill="#FFF"/><path d="M71.97 59.002a3.487 3.487 0 0 1 0-5.592l1.03-.77-1.143-3.503-1.287-.019c-2.339-.035-3.99-2.298-3.3-4.524l.38-1.225-2.992-2.166-1.053.738c-1.913 1.341-4.583.477-5.34-1.728L57.85 39h-3.698l-.416 1.213c-.757 2.205-3.427 3.07-5.34 1.728l-1.052-.738-2.992 2.166.379 1.225c.69 2.227-.961 4.489-3.3 4.524l-1.287.02L39 52.64l1.03.769a3.487 3.487 0 0 1 0 5.592l-1.03.77 1.143 3.503 1.287.019c2.339.035 3.99 2.297 3.3 4.524l-.38 1.225 2.993 2.166 1.052-.738c1.913-1.341 4.583-.477 5.34 1.728l.416 1.213h3.698l.416-1.213c.757-2.205 3.427-3.07 5.34-1.728l1.053.738 2.991-2.166-.379-1.224c-.69-2.227.961-4.49 3.3-4.525l1.287-.02L73 59.772l-1.03-.769zm-15.896 5.65c-4.742.04-8.593-3.797-8.553-8.52.04-4.585 3.802-8.333 8.405-8.372 4.742-.04 8.593 3.797 8.553 8.52-.04 4.585-3.801 8.333-8.405 8.372z" fill="#C8D5FF" fill-rule="nonzero"/></g></svg>