<svg width="90" height="90" viewBox="0 0 90 90" xmlns="http://www.w3.org/2000/svg"><g fill="none" fill-rule="evenodd"><ellipse cx="44.803" cy="45" rx="44.803" ry="44.4" fill="#68D3F7" opacity=".7"/><path d="M44.89 44.072c-7.032 0-12.733-5.605-12.733-12.519s5.701-12.519 12.733-12.519c7.033 0 12.734 5.605 12.734 12.52 0 6.913-5.701 12.518-12.734 12.518zm-11.649 2.282h23.81a9.095 9.095 0 0 1 9.095 9.095v9.585h-42V55.45a9.095 9.095 0 0 1 9.095-9.095z" fill="#FFF"/><path fill="#C3EEFD" d="M49 39h20v26H49z"/><g fill="#FFF"><path d="M51 48h16v1H51v-1zm0-3.072h10v1H51v-1zm0 6.144h16v1H51v-1zm0 3.072h16v1H51v-1zm0 3.072h16v1H51v-1z"/></g></g></svg>