<svg width="351" height="266" viewBox="0 0 351 266" xmlns="http://www.w3.org/2000/svg" xmlns:xlink="http://www.w3.org/1999/xlink"><defs><linearGradient x1="50%" y1="3.287%" x2="50%" y2="97.305%" id="c"><stop stop-color="#F7F7F7" offset="0%"/><stop stop-color="#E0E5E6" offset="100%"/></linearGradient><path id="b" d="M0 0h271v227.123H0z"/><filter x="-1.1%" y="-1.3%" width="104.1%" height="104.8%" filterUnits="objectBoundingBox" id="a"><feMorphology radius=".5" operator="dilate" in="SourceAlpha" result="shadowSpreadOuter1"/><feOffset dx="5" dy="5" in="shadowSpreadOuter1" result="shadowOffsetOuter1"/><feComposite in="shadowOffsetOuter1" in2="SourceAlpha" operator="out" result="shadowOffsetOuter1"/><feColorMatrix values="0 0 0 0 0.756862745 0 0 0 0 0.776470588 0 0 0 0 0.780392157 0 0 0 0.5 0" in="shadowOffsetOuter1"/></filter><path d="M140.795 18.17S101.213 22.214 70.568 0C39.77 22.214 1.088 18.17 1.088 18.17c-2.024 8.84-8.96 118.227 69.65 149.656 79.632-31.429 71.878-140.264 70.057-149.656z" id="e"/><filter x="-1.8%" y="-1.5%" width="107%" height="106%" filterUnits="objectBoundingBox" id="d"><feOffset dx="5" dy="5" in="SourceAlpha" result="shadowOffsetOuter1"/><feColorMatrix values="0 0 0 0 0.756862745 0 0 0 0 0.776470588 0 0 0 0 0.780392157 0 0 0 0.5 0" in="shadowOffsetOuter1"/></filter></defs><g fill="none" fill-rule="evenodd"><g transform="translate(74 1.018)"><use fill="#000" filter="url(#a)" xlink:href="#b"/><use fill="#FFF" xlink:href="#b"/><path stroke="url(#c)" stroke-width=".5" d="M-.25-.25h271.5v227.623H-.25z"/></g><path fill="#A9B2B8" d="M74 1.018h271v18.17H74z"/><g transform="translate(81.78 7.507)" fill="#EFF9FF"><ellipse cx="2.544" cy="2.596" rx="2.544" ry="2.596"/><ellipse cx="11.022" cy="2.596" rx="2.544" ry="2.596"/><ellipse cx="19.501" cy="2.596" rx="2.544" ry="2.596"/></g><g fill="#D8E3E6" opacity=".6"><path style="mix-blend-mode:multiply" d="M196.848 64.394h57.056v6.49h-57.056z"/><path style="mix-blend-mode:multiply" d="M196.848 81.266h132.266v6.49H196.848z"/><path style="mix-blend-mode:multiply" d="M196.848 92.947h88.178v6.49h-88.178z"/></g><g fill="#D8E3E6" opacity=".6"><path style="mix-blend-mode:multiply" d="M196.848 151.414h57.056v6.49h-57.056z"/><path style="mix-blend-mode:multiply" d="M196.848 168.286h132.266v6.49H196.848z"/><path style="mix-blend-mode:multiply" d="M196.848 179.967h88.178v6.49h-88.178z"/></g><g fill="#D8E3E6" opacity=".6"><path d="M166.434 78.438h-32.732V45.273c18.078 0 32.732 14.848 32.732 33.165z" style="mix-blend-mode:multiply"/><path d="M128.047 50.577c-18.078 0-32.732 14.848-32.732 33.165 0 18.316 14.654 33.164 32.732 33.164 18.077 0 32.732-14.848 32.732-33.164h-32.732V50.577z" style="mix-blend-mode:multiply"/></g><g fill-rule="nonzero" fill="#D8E3E6" opacity=".6"><path style="mix-blend-mode:multiply" d="M140.544 167.322h10.467v36.513h-10.467z"/><path style="mix-blend-mode:multiply" d="M159.256 157.069h10.467v46.767h-10.467z"/><path style="mix-blend-mode:multiply" d="M121.833 179.04H132.3v24.794h-10.467z"/><path style="mix-blend-mode:multiply" d="M103.12 191.419h10.467v12.417H103.12z"/><path d="M105.574 172.458s23.176-7.205 30.902-25.194h-6.622l13.373-11.844 12.011 11.844h-6.053s-6.19 25.194-43.61 25.194z" style="mix-blend-mode:multiply"/></g><g><g transform="translate(0 93)"><use fill="#000" filter="url(#d)" xlink:href="#e"/><use fill="#F0F5F8" xlink:href="#e"/></g><path d="M128.065 123.644s-32.28 3.299-57.271-14.818c-25.116 18.117-56.663 14.818-56.663 14.818-1.65 7.209-7.306 96.417 56.802 122.048 64.941-25.631 58.617-114.389 57.132-122.048z" fill="#11D06F"/><g><path d="M89.556 158.572v-6.748c0-9.997-8.177-18.159-18.178-18.159h-.694c-10 0-18.179 8.162-18.179 18.159v6.748c0 1.5 1.212 2.717 2.706 2.717a2.711 2.711 0 0 0 2.706-2.717v-6.748c0-6.989 5.749-12.725 12.767-12.725h.694c7.019 0 12.766 5.736 12.766 12.725v6.748c0 1.5 1.212 2.717 2.706 2.717a2.711 2.711 0 0 0 2.706-2.717z" fill="#FFF" fill-rule="nonzero" opacity=".799"/><path d="M43.692 161.814v36.842c0 1.8 1.463 3.257 3.266 3.257h48.027a3.261 3.261 0 0 0 3.266-3.257v-36.842a3.263 3.263 0 0 0-3.266-3.259H46.958a3.263 3.263 0 0 0-3.266 3.259z" fill="#FFF"/><path d="M65.013 189.682l3.726-13.557c-1.74-.894-2.94-2.68-2.94-4.767 0-2.97 2.414-5.38 5.39-5.38 2.978 0 5.39 2.41 5.39 5.38 0 2.086-1.202 3.873-2.94 4.767l3.727 13.557H65.013z" fill="#11D06F"/></g></g></g></svg>