<svg width="75" height="80" viewBox="0 0 75 80" xmlns="http://www.w3.org/2000/svg"><g fill="none" fill-rule="evenodd"><rect x=".642" width="58.546" height="66.984" rx="2" transform="translate(15.214)" fill="#89E5B9"/><g transform="translate(0 11.87)"><rect fill="#57DB9B" y=".462" width="58.546" height="66.984" rx="2"/><path d="M34.75 16.206H20.194c-.925 0-1.675.725-1.675 1.62 0 .896.75 1.621 1.675 1.621H34.75c.926 0 1.676-.725 1.676-1.62 0-.896-.75-1.621-1.676-1.621z" fill="#FFF" fill-rule="nonzero"/><path d="M13.29 16.206H6.027c-.926 0-1.676.725-1.676 1.62 0 .896.75 1.621 1.676 1.621h7.261c.926 0 1.676-.725 1.676-1.62 0-.896-.75-1.621-1.676-1.621z" fill="#FFF" fill-rule="nonzero"/><path d="M34.273 9.724H6.028c-.926 0-1.676.725-1.676 1.62 0 .895.75 1.62 1.676 1.62h28.245c.926 0 1.676-.725 1.676-1.62 0-.895-.75-1.62-1.676-1.62z" fill="#FFF" fill-rule="nonzero"/><path d="M23.425 22.688H6.028c-.926 0-1.676.726-1.676 1.62 0 .896.75 1.621 1.676 1.621h17.397c.926 0 1.676-.725 1.676-1.62 0-.895-.75-1.62-1.676-1.62z" fill="#FFF" fill-rule="nonzero"/></g></g></svg>