<svg width="99" height="99" viewBox="0 0 99 99" xmlns="http://www.w3.org/2000/svg" xmlns:xlink="http://www.w3.org/1999/xlink"><defs><circle id="b" cx="37.5" cy="37.5" r="37.5"/><filter x="-29.3%" y="-18.7%" width="158.7%" height="158.7%" filterUnits="objectBoundingBox" id="a"><feOffset dy="8" in="SourceAlpha" result="shadowOffsetOuter1"/><feGaussianBlur stdDeviation="6" in="shadowOffsetOuter1" result="shadowBlurOuter1"/><feColorMatrix values="0 0 0 0 0.607843137 0 0 0 0 0.647058824 0 0 0 0 0.639215686 0 0 0 0.15 0" in="shadowBlurOuter1"/></filter></defs><g fill="none" fill-rule="evenodd"><g transform="translate(12 4)"><use fill="#000" filter="url(#a)" xlink:href="#b"/><use fill="#FFF" xlink:href="#b"/></g><g fill-rule="nonzero" fill="#57DB9B"><path d="M41.078 58.605c1.268 2.72 4.48 3.93 7.139 2.69 2.078-.97 3.196-3.115 3.045-5.332l11.65-5.432 2.35 1.13c.452.211.93.228 1.366.026.338-.158.63-.415.757-.775a1.668 1.668 0 0 0-.775-2.166l-3.04-1.471c-.451-.211-.93-.229-1.365-.026l-12.23 5.703a5.371 5.371 0 0 0-4.635-1.991l-7.792-16.71a1.681 1.681 0 0 0-1.515-.978l-5.37.096c-.886-.008-1.594.744-1.515 1.67.007.9.76 1.632 1.672 1.568l4.315-.086 7.284 15.621c-1.779 1.612-2.401 4.19-1.34 6.463zm3.912-4.231c1.063-.496 2.348-.012 2.855 1.076.507 1.087.052 2.383-1.011 2.879-1.064.496-2.349.012-2.856-1.076-.507-1.088-.1-2.36 1.012-2.879z"/><path d="M66.125 41.269L59.44 26.932c-.392-.84-1.32-1.19-2.142-.806l-5.8 2.704-2.306-4.943c-.392-.84-1.32-1.19-2.141-.807l-8.7 4.057c-.823.383-1.151 1.319-.76 2.16l2.767 5.932c.046.098.069.148.163.224.047.1.021.171.067.27l6.685 14.336c.392.84 1.32 1.19 2.142.807l15.951-7.438c.822-.383 1.127-1.368.759-2.16z"/></g></g></svg>