<svg width="99" height="99" viewBox="0 0 99 99" xmlns="http://www.w3.org/2000/svg" xmlns:xlink="http://www.w3.org/1999/xlink"><defs><circle id="b" cx="37.5" cy="37.5" r="37.5"/><filter x="-29.3%" y="-18.7%" width="158.7%" height="158.7%" filterUnits="objectBoundingBox" id="a"><feOffset dy="8" in="SourceAlpha" result="shadowOffsetOuter1"/><feGaussianBlur stdDeviation="6" in="shadowOffsetOuter1" result="shadowBlurOuter1"/><feColorMatrix values="0 0 0 0 0.607843137 0 0 0 0 0.647058824 0 0 0 0 0.639215686 0 0 0 0.15 0" in="shadowBlurOuter1"/></filter><path d="M18.508 17.166a10.552 10.552 0 0 0 2.227-6.507C20.735 4.852 16.115.14 10.422.14 4.73.14.11 4.852.11 10.66c0 5.806 4.62 10.518 10.313 10.518 2.282 0 4.4-.757 6.104-2.048l3.066 3.259c.275.28.632.42.962.42.33 0 .715-.14.963-.42.55-.561.55-1.43 0-1.992l-3.01-3.23zM2.86 10.659c0-4.264 3.382-7.714 7.563-7.714 4.18 0 7.562 3.45 7.562 7.714 0 4.263-3.41 7.713-7.563 7.713-4.152 0-7.562-3.45-7.562-7.713z" id="c"/></defs><g fill="none" fill-rule="evenodd"><g transform="translate(12 4)"><use fill="#000" filter="url(#a)" xlink:href="#b"/><use fill="#FFF" xlink:href="#b"/></g><path d="M33 28v25a4 4 0 0 0 4 4h25a4 4 0 0 0 4-4V28a4 4 0 0 0-4-4H37a4 4 0 0 0-4 4zm23.17 12.048l-4.204-.833v9.9a.697.697 0 0 1-.694.694h-3.578a.697.697 0 0 1-.695-.694v-9.9l-4.134.833c-.66.14-1.111-.66-.66-1.18l6.809-7.47a.696.696 0 0 1 1.042 0l6.808 7.47c.417.52-.035 1.32-.695 1.18z" fill="#57DB9B" fill-rule="nonzero"/><g transform="translate(53 42)"><ellipse fill="#FFF" cx="10.593" cy="9.857" rx="8.148" ry="8.214"/><g fill-rule="nonzero"><use fill="#57DB9B" fill-rule="evenodd" xlink:href="#c"/><path stroke="#FFF" stroke-width="2" d="M19.799 17.085l2.433 2.611c.93.95.93 2.442.035 3.353-.43.489-1.081.76-1.712.76a2.38 2.38 0 0 1-1.69-.736l-2.475-2.63a11.082 11.082 0 0 1-5.968 1.734C4.173 22.177-.89 17.013-.89 10.659-.89 4.305 4.173-.86 10.423-.86c6.249 0 11.312 5.165 11.312 11.519 0 2.32-.684 4.548-1.936 6.426zM3.86 10.659c0 3.705 2.957 6.713 6.563 6.713 3.605 0 6.562-3.008 6.562-6.713 0-3.716-2.94-6.714-6.563-6.714-3.623 0-6.562 2.998-6.562 6.714z"/></g></g></g></svg>