<svg width="87" height="74" viewBox="0 0 87 74" xmlns="http://www.w3.org/2000/svg"><g fill="none" fill-rule="evenodd"><path d="M0 4.343h87V72a2 2 0 0 1-2 2H2a2 2 0 0 1-2-2V4.343z" fill="#65F2E8"/><path d="M2 0h83a2 2 0 0 1 2 2v6.686H0V2a2 2 0 0 1 2-2z" fill="#2AE4D7"/><g transform="translate(4.35 2.606)" fill="#EFF9FF"><ellipse cx="1.556" cy="1.52" rx="1.556" ry="1.52"/><ellipse cx="6.742" cy="1.52" rx="1.556" ry="1.52"/><ellipse cx="11.929" cy="1.52" rx="1.556" ry="1.52"/></g><g transform="translate(11 26)" fill="#FFF"><rect width="10.667" height="10.941" rx="2"/><rect y="20.059" width="10.667" height="10.941" rx="2"/><rect x="17.778" width="10.667" height="10.941" rx="2"/><rect x="17.778" y="20.059" width="10.667" height="10.941" rx="2"/><rect x="35.556" width="10.667" height="10.941" rx="2"/><rect x="35.556" y="20.059" width="10.667" height="10.941" rx="2"/><rect x="53.333" width="10.667" height="10.941" rx="2"/><rect x="53.333" y="20.059" width="10.667" height="10.941" rx="2"/></g></g></svg>