<svg width="99" height="99" viewBox="0 0 99 99" xmlns="http://www.w3.org/2000/svg" xmlns:xlink="http://www.w3.org/1999/xlink"><defs><circle id="b" cx="37.5" cy="37.5" r="37.5"/><filter x="-29.3%" y="-18.7%" width="158.7%" height="158.7%" filterUnits="objectBoundingBox" id="a"><feOffset dy="8" in="SourceAlpha" result="shadowOffsetOuter1"/><feGaussianBlur stdDeviation="6" in="shadowOffsetOuter1" result="shadowBlurOuter1"/><feColorMatrix values="0 0 0 0 0.607843137 0 0 0 0 0.647058824 0 0 0 0 0.639215686 0 0 0 0.15 0" in="shadowBlurOuter1"/></filter><circle id="c" cx="9" cy="9" r="9"/></defs><g fill="none" fill-rule="evenodd"><g transform="translate(12 4)"><use fill="#000" filter="url(#a)" xlink:href="#b"/><use fill="#FFF" xlink:href="#b"/></g><path d="M48.817 40.962c-5.023 0-9.095-4.02-9.095-8.981 0-4.96 4.072-8.981 9.095-8.981 5.023 0 9.095 4.02 9.095 8.981 0 4.96-4.072 8.981-9.095 8.981zM43.095 42.6h11.81A9.095 9.095 0 0 1 64 51.694V56H34v-4.306a9.095 9.095 0 0 1 9.095-9.095z" fill="#26B2F0" style="mix-blend-mode:multiply"/><g transform="translate(54 38)"><use fill="#26B2F0" xlink:href="#c"/><circle stroke="#FFF" stroke-width="2" cx="9" cy="9" r="10"/></g><path d="M59.707 46.37a1 1 0 1 0-1.414 1.415l3.456 3.456a1 1 0 0 0 1.414 0l6.078-6.078a1 1 0 1 0-1.414-1.414l-5.37 5.37-2.75-2.749z" fill="#FFF" fill-rule="nonzero"/></g></svg>