<svg width="99" height="99" viewBox="0 0 99 99" xmlns="http://www.w3.org/2000/svg" xmlns:xlink="http://www.w3.org/1999/xlink"><defs><circle id="b" cx="37.5" cy="37.5" r="37.5"/><filter x="-29.3%" y="-18.7%" width="158.7%" height="158.7%" filterUnits="objectBoundingBox" id="a"><feOffset dy="8" in="SourceAlpha" result="shadowOffsetOuter1"/><feGaussianBlur stdDeviation="6" in="shadowOffsetOuter1" result="shadowBlurOuter1"/><feColorMatrix values="0 0 0 0 0.607843137 0 0 0 0 0.647058824 0 0 0 0 0.639215686 0 0 0 0.15 0" in="shadowBlurOuter1"/></filter></defs><g fill="none" fill-rule="evenodd"><g transform="translate(12 4)"><use fill="#000" filter="url(#a)" xlink:href="#b"/><use fill="#FFF" xlink:href="#b"/></g><path d="M63.746 41.463c-2.651 0-4.82-2.17-4.82-5.062 0 2.651-2.17 5.062-4.822 5.062-2.651 0-4.82-2.17-4.82-5.062 0 2.651-2.17 5.062-4.821 5.062-2.652 0-4.821-2.17-4.821-5.062 0 2.651-2.17 5.062-4.821 5.062-2.652 0-4.821-2.17-4.821-5.062L33.375 26h31.817l3.375 10.4c0 2.652-2.17 5.063-4.821 5.063zM36.99 42.909v9.16h24.105v-9.16c.89.386 2.94.353 3.615.24v12.535c0 .964-.723 1.928-1.928 1.928h-27.72c-.964 0-1.928-.723-1.928-1.928V43.15c1.26.148 2.643.137 3.856-.241z" fill="#6F94F0" fill-rule="nonzero"/></g></svg>