<svg width="89" height="85" viewBox="0 0 89 85" xmlns="http://www.w3.org/2000/svg"><g fill="none" fill-rule="evenodd"><path d="M39.566 11.971V7.85H45.5V0H25.718v7.85h5.935v4.121C13.848 13.934 0 28.848 0 47.1c0 19.526 15.925 35.324 35.61 35.324 19.683 0 35.608-15.798 35.608-35.324 0-18.153-13.848-33.166-31.652-35.129z" fill="#37C4FD" fill-rule="nonzero"/><path d="M36.087 46.977V21.465c-14.244 0-25.718 11.382-25.718 25.512s11.474 25.512 25.718 25.512c14.243 0 25.717-11.382 25.717-25.512 0-4.612-1.286-9.028-3.462-12.756L36.087 46.977z" fill="#FFF" fill-rule="nonzero"/><path d="M61.038 7.727l-5.737 5.691a39.1 39.1 0 0 1 13.947 13.836l5.737-5.691C71.424 15.97 66.577 11.26 61.038 7.727z" fill="#37C4FD" fill-rule="nonzero"/><ellipse fill="#8DDDFD" cx="65.238" cy="61.389" rx="23.762" ry="23.611"/><path d="M74.605 56.949h-6.133l7.22-8.259a1.39 1.39 0 0 0 .22-1.51 1.423 1.423 0 0 0-1.307-.816H64.399a1.44 1.44 0 0 0-1.28.774l-8.523 16.447a1.52 1.52 0 0 0 .052 1.449c.26.426.725.736 1.228.736H62.14l-3.225 10.557a1.395 1.395 0 0 0 .716 1.657c.21.108.436.147.66.147.433 0 .855-.198 1.136-.555l14.313-18.24a1.492 1.492 0 0 0 .157-1.546c-.242-.49-.742-.841-1.292-.841z" fill="#37C4FD" fill-rule="nonzero"/></g></svg>