<svg width="82" height="83" viewBox="0 0 82 83" xmlns="http://www.w3.org/2000/svg"><g fill="none" fill-rule="evenodd"><path d="M80.294 59.71l-37.57-18.813a4 4 0 0 0-3.583 0L1.571 59.71a2 2 0 0 0 0 3.577l37.57 18.816a4 4 0 0 0 3.583 0l37.57-18.816a2 2 0 0 0 0-3.577z" fill="#CDD0FE"/><path d="M80.294 38.71l-37.57-18.813a4 4 0 0 0-3.583 0L1.571 38.71a2 2 0 0 0 0 3.577l37.57 18.816a4 4 0 0 0 3.583 0l37.57-18.816a2 2 0 0 0 0-3.577z" fill="#B8BCF7"/><path d="M80.294 19.71L42.724.897a4 4 0 0 0-3.583 0L1.571 19.71a2 2 0 0 0 0 3.577l37.57 18.816a4 4 0 0 0 3.583 0l37.57-18.816a2 2 0 0 0 0-3.577z" fill="#8C91F1"/><path d="M44.755 59.563l8.12-8.119a3.228 3.228 0 1 1 4.564 4.566L43.744 69.706a3.228 3.228 0 0 1-4.566 0L25.482 56.01a3.228 3.228 0 1 1 4.566-4.566l8.251 8.252v-38.13a3.228 3.228 0 1 1 6.456 0v37.997z" fill="#FFF" fill-rule="nonzero"/></g></svg>