<svg width="122" height="122" viewBox="0 0 122 122" xmlns="http://www.w3.org/2000/svg" xmlns:xlink="http://www.w3.org/1999/xlink"><defs><circle id="b" cx="49" cy="49" r="49"/><filter x="-22.4%" y="-14.3%" width="144.9%" height="144.9%" filterUnits="objectBoundingBox" id="a"><feOffset dy="8" in="SourceAlpha" result="shadowOffsetOuter1"/><feGaussianBlur stdDeviation="6" in="shadowOffsetOuter1" result="shadowBlurOuter1"/><feColorMatrix values="0 0 0 0 0.607843137 0 0 0 0 0.647058824 0 0 0 0 0.639215686 0 0 0 0.15 0" in="shadowBlurOuter1"/></filter><linearGradient x1="50%" y1="17.063%" x2="50%" y2="100%" id="c"><stop stop-color="#26B2F0" offset="0%"/><stop stop-color="#4355FE" offset="100%"/></linearGradient></defs><g fill="none" fill-rule="evenodd"><g transform="translate(12 4)"><use fill="#000" filter="url(#a)" xlink:href="#b"/><use fill="#FFF" xlink:href="#b"/></g><path d="M58.767 75.728c.121-.264.186-.55.19-.842a1.91 1.91 0 0 0-1.78-1.913l-4.059-7.118a5.754 5.754 0 0 0-.876-9.09v-22.53a4.795 4.795 0 0 0 1.71-4.826 4.773 4.773 0 0 0-3.616-3.613V21.51a1.744 1.744 0 0 0-.238-3.004V12h-1.41v6.506c-.59.297-.96.906-.952 1.569a1.715 1.715 0 0 0 .695 1.435v4.286a4.773 4.773 0 0 0-3.615 3.613 4.795 4.795 0 0 0 1.71 4.826v22.53a5.754 5.754 0 0 0-.895 9.06l-4.04 7.12a1.91 1.91 0 0 0-1.78 1.913c.003.29.068.577.19.842L37 80.99h2.696l2.39-4.2a1.912 1.912 0 0 0 1.535-1.913c-.001-.206-.037-.41-.105-.603l4.144-7.261c.184.06.372.112.562.153v6.17a1.916 1.916 0 0 0 0 3.072v4.573h2.324v-4.564c.467-.37.74-.933.743-1.53a1.916 1.916 0 0 0-.743-1.531v-6.18c.19-.042.378-.093.562-.154l4.144 7.262a1.824 1.824 0 0 0-.105.602 1.912 1.912 0 0 0 1.534 1.914l2.39 4.2h2.697l-3.001-5.272zm-8.43-19.718a4.979 4.979 0 0 0-1.906 0v-2.775h1.905v2.775zm-1.906-4.669h1.905v-2.363h-1.905v2.363zm0-4.315h1.905v-2.353h-1.905v2.353zm0-4.305h1.905v-2.354h-1.905v2.354zm1.905-4.305h-1.905v-3.292a4.534 4.534 0 0 0 1.905 0v3.292z" fill="url(#c)" transform="translate(12 4)"/></g></svg>