<svg width="1002" height="550" viewBox="0 0 1002 550" xmlns="http://www.w3.org/2000/svg" xmlns:xlink="http://www.w3.org/1999/xlink"><defs><style>tspan{background-repeat:no-repeat;font-family:&quot;PingFangSC-Regular&quot;,&quot;Source Sans Pro&quot;,&quot;Helvetica Neue&quot;,Arial,&quot;Hiragino Sans GB&quot;,&quot;Microsoft YaHei&quot;,&quot;WenQuanYi Micro Hei&quot;,sans-serif}</style><linearGradient x1="0%" y1="106.183%" x2="0%" y2="23.723%" id="linearGradient-tower1"><stop stop-color="#0FEAF0" stop-opacity="0" offset="0%"/><stop stop-color="#06CFDB" offset="100%"/></linearGradient><linearGradient x1="100%" y1="50%" x2="1.299%" y2="50%" id="linearGradient-tower2"><stop stop-color="#08CCDE" offset="0%"/><stop stop-color="#00EF93" offset="100%"/></linearGradient><linearGradient x1="50%" y1="0%" x2="50%" y2="100%" id="linearGradient-tower3"><stop stop-color="#0FEAF0" stop-opacity="0" offset="0%"/><stop stop-color="#06CFDB" offset="100%"/></linearGradient><linearGradient x1="100%" y1="50%" x2="1.299%" y2="50%" id="linearGradient-tower4"><stop stop-color="#34D7E6" offset="0%"/><stop stop-color="#3CF4AD" offset="100%"/></linearGradient><path id="path-tower5" d="M477.846 330.563L265.945 437.128 52.658 330.565 264.558 224z"/><filter x="-6.2%" y="-9.1%" width="112.5%" height="124.9%" filterUnits="objectBoundingBox" id="filter-tower6"><feMorphology radius=".5" operator="dilate" in="SourceAlpha" result="shadowSpreadOuter1"/><feOffset dy="7" in="shadowSpreadOuter1" result="shadowOffsetOuter1"/><feGaussianBlur stdDeviation="7.5" in="shadowOffsetOuter1" result="shadowBlurOuter1"/><feComposite in="shadowBlurOuter1" in2="SourceAlpha" operator="out" result="shadowBlurOuter1"/><feColorMatrix values="0 0 0 0 0.00392156863 0 0 0 0 0.494117647 0 0 0 0 0.4 0 0 0 0.08 0" in="shadowBlurOuter1"/></filter><linearGradient x1="96.247%" y1="50%" x2="1.299%" y2="50%" id="linearGradient-tower7"><stop stop-color="#63E4EF" offset="0%"/><stop stop-color="#70F7C3" offset="100%"/></linearGradient><path id="path-tower8" d="M427.873 253.4L264.97 335.322 101 253.401l162.903-81.924z"/><filter x="-8.1%" y="-11.9%" width="116.2%" height="132.3%" filterUnits="objectBoundingBox" id="filter-tower9"><feMorphology radius=".5" operator="dilate" in="SourceAlpha" result="shadowSpreadOuter1"/><feOffset dy="7" in="shadowSpreadOuter1" result="shadowOffsetOuter1"/><feGaussianBlur stdDeviation="7.5" in="shadowOffsetOuter1" result="shadowBlurOuter1"/><feComposite in="shadowBlurOuter1" in2="SourceAlpha" operator="out" result="shadowBlurOuter1"/><feColorMatrix values="0 0 0 0 0 0 0 0 0 0.494117647 0 0 0 0 0.4 0 0 0 0.08 0" in="shadowBlurOuter1"/></filter><linearGradient x1="97.364%" y1="50%" x2="1.299%" y2="50%" id="linearGradient-tower10"><stop stop-color="#8BEDF6" offset="0%"/><stop stop-color="#A2FBD8" offset="100%"/></linearGradient><path id="path-tower11" d="M377.89 175.18L264.905 232 151.18 175.181l112.984-56.82z"/><filter x="-11.7%" y="-17.2%" width="123.4%" height="146.6%" filterUnits="objectBoundingBox" id="filter-tower12"><feMorphology radius=".5" operator="dilate" in="SourceAlpha" result="shadowSpreadOuter1"/><feOffset dy="7" in="shadowSpreadOuter1" result="shadowOffsetOuter1"/><feGaussianBlur stdDeviation="7.5" in="shadowOffsetOuter1" result="shadowBlurOuter1"/><feComposite in="shadowBlurOuter1" in2="SourceAlpha" operator="out" result="shadowBlurOuter1"/><feColorMatrix values="0 0 0 0 0 0 0 0 0 0.494117647 0 0 0 0 0.4 0 0 0 0.08 0" in="shadowBlurOuter1"/></filter><linearGradient x1="100%" y1="50%" x2="1.299%" y2="50%" id="linearGradient-tower13"><stop stop-color="#B7F9FE" offset="0%"/><stop stop-color="#D4FFEE" offset="100%"/></linearGradient><path id="path-tower14" d="M72.064 0l71.246 110.283L72.312 146 .817 110.283z"/><filter x="-18.6%" y="-13.4%" width="137.2%" height="136.3%" filterUnits="objectBoundingBox" id="filter-tower15"><feMorphology radius=".5" operator="dilate" in="SourceAlpha" result="shadowSpreadOuter1"/><feOffset dy="7" in="shadowSpreadOuter1" result="shadowOffsetOuter1"/><feGaussianBlur stdDeviation="7.5" in="shadowOffsetOuter1" result="shadowBlurOuter1"/><feComposite in="shadowBlurOuter1" in2="SourceAlpha" operator="out" result="shadowBlurOuter1"/><feColorMatrix values="0 0 0 0 0 0 0 0 0 0.494117647 0 0 0 0 0.4 0 0 0 0.08 0" in="shadowBlurOuter1"/></filter><linearGradient x1="0%" y1="135.983%" x2="0%" y2="73.501%" id="linearGradient-tower16"><stop stop-color="#0FEAF0" stop-opacity="0" offset="0%"/><stop stop-color="#06CFDB" offset="100%"/></linearGradient></defs><g fill="none" fill-rule="evenodd"><text font-size="14" fill="#7D8B86" transform="translate(1 6)"><tspan x="641" y="97">提供可视化界面，让市场、产品、运营等业务人员更高效</tspan> <tspan x="641" y="122">地进行深度数据分析</tspan></text><text font-size="14" fill="#7D8B86" transform="translate(1 6)"><tspan x="641" y="176.316">开放查询接口，灵活扩展已有的分析功能，支持与其它内</tspan> <tspan x="641" y="201.316">部业务系统进行无缝对接</tspan> </text><text font-size="14" fill="#7D8B86" transform="translate(1 6)"><tspan x="641" y="255.633">提供了基于全量数据的离线计算能力，用于文本挖掘、搜</tspan> <tspan x="641" y="280.633">索优化、精准广告、深度分析等应用</tspan></text><text font-size="14" fill="#7D8B86" transform="translate(1 6)"><tspan x="641" y="334.316">提供了实时订阅数据的能力，支持分布式的流式计算，用</tspan> <tspan x="641" y="359.316">于实现个性化推荐、精准广告、风控等应用</tspan></text><text font-size="14" fill="#7D8B86" transform="translate(1 6)"><tspan x="641" y="413">完全开放的数据接入协议，可以扩展实现接入任意数据源</tspan> <tspan x="641" y="438">的数据</tspan></text><g stroke="#7D949D" stroke-opacity=".7" stroke-dasharray="4,4"><path d="M329.5 101.688h287.14"/><path d="M381.477 180.521H616.64"/><path d="M429.487 259.617H616.82" fill-opacity=".05" fill="#00FFBE"/><path d="M470.48 338.45h146.34" fill-opacity=".05" fill="#00FFBE"/><path d="M505.18 417.284h111.64" fill-opacity=".05" fill="#00FFBE"/></g><path stroke="url(#linearGradient-tower1)" d="M264.972 0l264.972 410.15-264.048 132.835L0 410.15z" transform="translate(1 6)"/><path stroke="url(#linearGradient-tower3)" fill="url(#linearGradient-tower2)" fill-rule="nonzero" stroke-linejoin="round" d="M530.072 410.148L265.899 543 0 410.15 264.171 277.3z" transform="translate(1 6)"/><g fill-rule="nonzero" transform="translate(1 6)"><use fill="#000" filter="url(#filter-tower6)" xlink:href="#path-tower5"/><use stroke="url(#linearGradient-tower3)" fill="url(#linearGradient-tower4)" fill-rule="evenodd" xlink:href="#path-tower5"/></g><g fill-rule="nonzero" transform="translate(1 6)"><use fill="#000" filter="url(#filter-tower9)" xlink:href="#path-tower8"/><use stroke="url(#linearGradient-tower3)" fill="url(#linearGradient-tower7)" fill-rule="evenodd" xlink:href="#path-tower8"/></g><g fill-rule="nonzero" transform="translate(1 6)"><use fill="#000" filter="url(#filter-tower12)" xlink:href="#path-tower11"/><use stroke="url(#linearGradient-tower3)" fill="url(#linearGradient-tower10)" fill-rule="evenodd" xlink:href="#path-tower11"/></g><g><g transform="translate(193.909 6)"><use fill="#000" filter="url(#filter-tower15)" xlink:href="#path-tower14"/><use stroke="url(#linearGradient-tower3)" fill="url(#linearGradient-tower13)" xlink:href="#path-tower14"/></g></g><path d="M264.5 1l-.001 541" stroke="url(#linearGradient-tower16)" transform="translate(1 6)"/><g font-weight="400" fill="#08BDD0" font-size="16"><text style="mix-blend-mode:multiply" transform="rotate(-27 445.108 -86.73)"><tspan x="103.2" y="384.937">数据接入层</tspan></text><text style="mix-blend-mode:multiply" transform="rotate(-27 425.855 -182.073)"><tspan x="83.947" y="289.593">数据传输层</tspan></text><text style="mix-blend-mode:multiply" transform="rotate(-27 400.855 -270.073)"><tspan x="58.947" y="201.593">数据存储层</tspan></text><text style="mix-blend-mode:multiply" transform="rotate(-27 371.855 -359.073)"><tspan x="46.267" y="112.593">查询层</tspan></text><text style="mix-blend-mode:multiply" transform="rotate(-26 364 -451.347)"><tspan x="47.915" y="40.593">BI</tspan></text></g><g transform="translate(621 95)" fill="#57DB9B"><circle cx="6" cy="6" r="6"/><circle cx="6" cy="85.25" r="6"/><circle cx="6" cy="164.5" r="6"/><circle cx="6" cy="243.75" r="6"/><circle cx="6" cy="323" r="6"/></g></g></svg>